<svg xmlns="http://www.w3.org/2000/svg" xmlns:xlink="http://www.w3.org/1999/xlink" width="500" zoomAndPan="magnify" viewBox="0 0 375 374.999991" height="500" preserveAspectRatio="xMidYMid meet" version="1.0"><defs><g/><clipPath id="40dc3ca37a"><path d="M 37 67 L 331 67 L 331 313 L 37 313 Z M 37 67 " clip-rule="nonzero"/></clipPath><clipPath id="4f4e38a661"><path d="M 94.785156 30.792969 L 380.75 159.269531 L 294.691406 350.824219 L 8.726562 222.347656 Z M 94.785156 30.792969 " clip-rule="nonzero"/></clipPath><clipPath id="45d6001e8c"><path d="M 94.851562 30.644531 L 380.820312 159.117188 L 294.757812 350.671875 L 8.792969 222.199219 Z M 94.851562 30.644531 " clip-rule="nonzero"/></clipPath><clipPath id="a88ee911fa"><path d="M 79 239 L 84 239 L 84 243 L 79 243 Z M 79 239 " clip-rule="nonzero"/></clipPath><clipPath id="32a3fb5ebc"><path d="M 94.785156 30.792969 L 380.75 159.269531 L 294.691406 350.824219 L 8.726562 222.347656 Z M 94.785156 30.792969 " clip-rule="nonzero"/></clipPath><clipPath id="a29bab814b"><path d="M 94.851562 30.644531 L 380.820312 159.117188 L 294.757812 350.671875 L 8.792969 222.199219 Z M 94.851562 30.644531 " clip-rule="nonzero"/></clipPath><clipPath id="ad238f414c"><path d="M 50 222 L 80 222 L 80 240 L 50 240 Z M 50 222 " clip-rule="nonzero"/></clipPath><clipPath id="80af61cdf6"><path d="M 94.785156 30.792969 L 380.75 159.269531 L 294.691406 350.824219 L 8.726562 222.347656 Z M 94.785156 30.792969 " clip-rule="nonzero"/></clipPath><clipPath id="8351be9fd3"><path d="M 94.851562 30.644531 L 380.820312 159.117188 L 294.757812 350.671875 L 8.792969 222.199219 Z M 94.851562 30.644531 " clip-rule="nonzero"/></clipPath><clipPath id="aad63458ee"><path d="M 59 225 L 66 225 L 66 231 L 59 231 Z M 59 225 " clip-rule="nonzero"/></clipPath><clipPath id="af35b6dd90"><path d="M 94.785156 30.792969 L 380.75 159.269531 L 294.691406 350.824219 L 8.726562 222.347656 Z M 94.785156 30.792969 " clip-rule="nonzero"/></clipPath><clipPath id="6753260175"><path d="M 94.851562 30.644531 L 380.820312 159.117188 L 294.757812 350.671875 L 8.792969 222.199219 Z M 94.851562 30.644531 " clip-rule="nonzero"/></clipPath></defs><g clip-path="url(#40dc3ca37a)"><g clip-path="url(#4f4e38a661)"><g clip-path="url(#45d6001e8c)"><path fill="#8fe3d9" d="M 315.113281 222.199219 C 315.472656 223.992188 311.246094 224.554688 312.792969 227.359375 C 313.589844 227.742188 314.167969 227.5625 314.625 227.058594 C 315.582031 227.722656 313.875 229.714844 313.359375 229.875 C 313.085938 231.015625 315.84375 231.007812 315.757812 232.078125 C 309.296875 239.324219 300.546875 240.566406 290.9375 239.539062 C 298.964844 249.964844 320.769531 258.097656 330.089844 265.585938 C 328.925781 269.3125 329.097656 271.605469 326.550781 274.714844 C 325.660156 275.828125 327.117188 276.058594 327.328125 276.753906 C 323.550781 280.003906 321.640625 282.738281 318.34375 287.945312 C 311.382812 288.820312 303.753906 287.84375 296.277344 284.238281 C 292.707031 282.511719 290.222656 278.625 286.992188 277.246094 C 285.332031 276.535156 283.921875 276.882812 281.816406 274.921875 C 280.855469 275.441406 280.644531 277.847656 278.980469 278.722656 C 280.113281 282.1875 284.914062 284.261719 286.273438 287.640625 C 287.761719 287.582031 288.1875 287.335938 288.269531 285.714844 C 288.574219 286.898438 290.382812 287.511719 289.566406 289.117188 C 289.113281 288.902344 289.457031 288.378906 289.515625 287.96875 C 288.21875 287.289062 288.703125 291.292969 287.050781 289.683594 C 288.097656 292.621094 287.460938 295.164062 290.113281 296.699219 C 289.425781 298.636719 288.585938 300.175781 287.28125 300.5 C 288.660156 309.183594 279.738281 310.132812 274.421875 312.769531 C 265.429688 313.972656 258.378906 307.230469 249.4375 305.496094 C 249.246094 305.460938 248.167969 305.285156 247.820312 305.332031 C 239.191406 306.5 228.359375 313.679688 218.785156 305.824219 C 216.761719 306.425781 219.210938 308.164062 217.519531 308.640625 C 214.574219 306.703125 212.398438 306.792969 211.082031 309.132812 C 205.851562 304.785156 203.046875 304.796875 196.816406 304.414062 C 196.992188 305.253906 197.648438 305.914062 198.0625 306.664062 C 194.15625 305.117188 190.308594 301.539062 186.683594 299.296875 C 185.792969 300.410156 187.246094 300.640625 187.460938 301.335938 C 182.441406 300.382812 176.925781 296.246094 172.839844 293.640625 C 172.140625 293.5 171.925781 294.640625 171.527344 295.308594 C 168.460938 293.453125 162.035156 290.632812 159.890625 287.257812 C 158.722656 287.136719 156.238281 286.335938 154.714844 284.933594 C 145.960938 276.886719 133.480469 267.945312 122.621094 262.054688 C 120.542969 260.929688 117.851562 261.0625 116.929688 258.371094 C 106.597656 254.605469 100.253906 246.339844 91.722656 240.277344 C 82.84375 233.972656 74.386719 226.910156 65.410156 223.382812 C 65.445312 224.730469 69.410156 227.089844 69.363281 229.667969 C 57.242188 223.238281 53.074219 216.371094 44.269531 208.808594 C 44.96875 207.765625 43.871094 207.402344 44.855469 206.25 C 41.8125 200.46875 41.648438 195.042969 37.222656 189.285156 C 38.015625 188.644531 39.398438 189.542969 39.6875 187.570312 C 37.472656 184.542969 40.347656 185.449219 37.191406 183.066406 C 38.242188 182.074219 39.367188 181.277344 40.027344 179.265625 C 41.6875 179.105469 41.675781 180.953125 42.542969 178.703125 C 43.597656 179.082031 42.007812 180.464844 41.957031 181.257812 C 44.039062 181.082031 43.160156 181.066406 44.777344 182.527344 C 46.636719 180.523438 44.027344 180.214844 43.480469 179.125 C 44.550781 177.503906 43.613281 175.617188 45.378906 174.902344 C 45.355469 173.453125 41.691406 171.566406 44.761719 171.242188 C 43.011719 169.4375 43.441406 166.808594 40.597656 165.421875 C 42.207031 162.9375 42.4375 162.984375 43.855469 160.683594 C 44.734375 160.949219 45.996094 162.210938 46.15625 160.589844 C 48.183594 161.238281 45.515625 161.507812 45.574219 163.148438 C 48.152344 164.203125 54.539062 160.914062 53.890625 163.496094 C 56.644531 162.472656 57.019531 161.746094 61.265625 163.425781 C 61.480469 162.4375 59.609375 162.242188 60.699219 160.917969 C 62.289062 161.355469 61.980469 162.507812 63.78125 162.863281 C 64.773438 159.890625 60.550781 158.894531 59.144531 156.835938 C 60.503906 155.304688 61.039062 154.660156 62.804688 156.222656 C 65.007812 153.28125 62.03125 151.398438 60.101562 152.1875 C 61.523438 150.796875 63.210938 150.128906 64.820312 149.230469 C 63.898438 147.632812 63.113281 145.984375 61.855469 144.515625 C 66.703125 139.609375 65.726562 131.515625 69.933594 122.765625 C 71.773438 123.488281 69.929688 123.222656 69.769531 124.382812 C 78.074219 129.675781 95.007812 139.265625 110.769531 145.0625 C 98.78125 137.554688 90.394531 130.292969 75.832031 125.980469 C 76.269531 123.929688 79.304688 126.015625 78.507812 123.800781 C 78.402344 121.78125 73.878906 121.839844 73.285156 120.328125 C 73.785156 118.90625 74.898438 119.105469 75.753906 118.613281 C 73.582031 114.667969 69.550781 109.417969 66.996094 107.910156 C 66.320312 105.253906 69.054688 102.8125 69.855469 99.042969 C 71.039062 99.632812 69.820312 101.128906 70.207031 102.023438 C 71.683594 101.121094 72.792969 99.261719 74.457031 98.859375 C 77.304688 100.710938 82.148438 100.320312 85.59375 100.472656 C 82.453125 97.972656 80.402344 98.496094 76.871094 95.992188 C 77.597656 94.828125 79.457031 96.644531 80.324219 95.855469 C 77.875 94.1875 77.566406 91.707031 74.328125 90.339844 C 73.574219 88.957031 77.570312 91.414062 78.769531 91.769531 C 76.175781 89.25 74.625 86.332031 72.203125 83.75 C 72.929688 82.246094 74.5 82.957031 75.609375 82.457031 C 76.757812 80.070312 74.449219 79.003906 74.683594 76.964844 C 76.25 75.074219 77.8125 77.152344 79.808594 78.140625 C 81.445312 77.746094 78.359375 75.859375 78.511719 74.738281 C 79.160156 73.707031 79.945312 73.050781 80.71875 72.34375 C 84.160156 74.5625 86.160156 72.992188 89.597656 75.207031 C 91.148438 75.53125 89.601562 74.003906 90.441406 73.328125 C 95.621094 76.746094 103.710938 77.691406 106.996094 83.023438 C 108.371094 83.90625 108.804688 82.316406 109.980469 82.671875 C 111.222656 81.542969 107.730469 79.414062 110.5625 80.113281 C 110.507812 78.734375 107.910156 79.195312 107.835938 81.148438 C 108.824219 75.835938 112.117188 74.03125 114.988281 70.257812 C 123.785156 72.207031 133.167969 75.703125 142.0625 77.914062 C 142.542969 73.539062 146.417969 70.617188 148.535156 67.28125 C 180.371094 64.769531 223.105469 88.125 259.050781 106.78125 C 274.566406 114.835938 291.226562 123.566406 298.457031 133.511719 C 296.425781 136.179688 295.355469 137.53125 292.734375 139.964844 C 281.136719 136.542969 266.328125 127.070312 251.359375 121.378906 C 262.992188 132.953125 281.898438 145.585938 295.550781 157.585938 C 298.222656 159.933594 301.003906 162.917969 305.308594 164.792969 C 305.238281 166.769531 305.550781 168.597656 307.59375 169.765625 C 306.191406 170.792969 304.308594 172.667969 307.53125 173.683594 C 305.949219 179.367188 305.878906 183.632812 301.625 186.828125 C 301.523438 191.640625 303.515625 196.199219 297.554688 199.660156 C 298.164062 206.304688 309.148438 209.023438 309.53125 215.757812 C 310.75 216.074219 310.167969 217.074219 311.671875 217.28125 C 311.179688 219.804688 310.6875 222.328125 312.644531 223.921875 C 313.945312 223.273438 314.160156 221.386719 315.113281 222.199219 Z M 246.714844 229.820312 C 248.621094 228.976562 248.792969 232.957031 250.214844 230.832031 C 248.753906 230.324219 247.941406 228.230469 246.714844 229.820312 Z M 233.613281 219.988281 C 233.371094 221.914062 237.667969 224.144531 239.773438 223.882812 C 237.792969 222.804688 236.4375 219.449219 233.613281 219.988281 Z M 229.125 217.40625 C 230.972656 217.609375 231.867188 221.464844 233.355469 219.304688 C 231.316406 219.140625 230.734375 216.449219 229.125 217.40625 Z M 232.160156 185.496094 C 235.132812 187.28125 240.804688 192.007812 243.703125 191.242188 C 239.554688 189.015625 235.894531 185.269531 232.160156 185.496094 Z M 170.597656 180.398438 C 168.605469 179.800781 171.867188 182.929688 171.636719 183.121094 C 171.710938 183.058594 169.648438 182.503906 170.019531 182.957031 C 171.5625 184.863281 174.207031 184.445312 176.597656 185.914062 C 179.996094 187.992188 182.488281 192.421875 186.050781 191.285156 C 191.617188 196.839844 198.949219 198.929688 205.210938 202.714844 C 212.765625 207.277344 220.796875 214.472656 227.195312 215.414062 C 223.589844 212.550781 217.777344 209.089844 214.988281 204.851562 C 215.398438 204.910156 215.917969 205.257812 216.136719 204.804688 C 212.144531 201.90625 206.089844 197.710938 201.9375 196.171875 C 202.125 197.65625 206.113281 197.699219 206.21875 199.21875 C 204.15625 199.847656 203.027344 196.835938 201.304688 197.578125 C 203.316406 199.019531 205.46875 200.410156 205.890625 202.457031 C 203.542969 200.117188 199.308594 198.484375 201.253906 196.425781 C 192.585938 193.128906 182.683594 183.992188 176.289062 184.082031 C 177.28125 184.898438 181.035156 186.664062 179.417969 187.179688 C 176.058594 185.078125 172.285156 183.132812 170.597656 180.398438 Z M 233.34375 175.3125 C 211.375 161.15625 181.152344 146.007812 157.929688 136.917969 C 179.632812 148.21875 205.214844 159.183594 224.765625 174.277344 C 224.183594 174.101562 223.46875 173.597656 223.148438 174.113281 C 228.078125 173.636719 229.339844 179.910156 234.738281 181.011719 C 234.882812 179.277344 233.757812 177.730469 233.34375 175.3125 Z M 185.011719 221.277344 C 187.515625 222.015625 188.675781 223.261719 189.757812 224.535156 C 191.335938 222.023438 186.191406 219.34375 185.011719 221.277344 Z M 171.046875 218.386719 C 169.429688 220.042969 173.703125 219.457031 172.085938 221.109375 C 171.769531 220.191406 170.25 219.730469 169.007812 219.164062 C 170.875 218.445312 168.515625 218.414062 168.699219 217.335938 C 169.4375 217.574219 170.355469 218.28125 170.789062 217.710938 C 168.695312 216.472656 167.246094 215.582031 164.632812 213.816406 C 164.09375 215.578125 167.449219 215.859375 166.867188 217.644531 C 163.441406 214.960938 160.582031 212.386719 156.003906 211.636719 C 164.160156 217.792969 173.867188 224.445312 182.574219 229.210938 C 183.105469 227.53125 181.476562 227.789062 183.417969 227.332031 C 183.101562 227.066406 182.496094 226.90625 182.691406 226.445312 C 180.78125 225.179688 182.648438 227.546875 181.328125 226.960938 C 178.976562 222.875 174.519531 221.539062 171.046875 218.386719 Z M 174.355469 214.800781 C 176.910156 216.296875 178.617188 218.117188 181.929688 219.328125 C 179.820312 216.230469 179.410156 216.648438 174.355469 214.800781 Z M 173.792969 195.929688 C 174.648438 196.714844 178.699219 199.769531 178.964844 198.253906 C 176.617188 197.953125 175.707031 195.109375 173.792969 195.929688 Z M 162.199219 189.035156 C 163.632812 192.882812 169.980469 192.527344 172.640625 195.980469 C 173.316406 193.257812 167.394531 193.035156 167.113281 190.675781 C 171.269531 192.347656 174.785156 194.257812 178.1875 196.214844 C 166.550781 186.957031 149.292969 177.210938 135.941406 173.289062 C 136.449219 173.492188 137.035156 174.046875 136.199219 173.96875 C 118.109375 164.109375 104.460938 155.765625 86.039062 154.816406 C 89.097656 155.816406 94.984375 160.214844 99.464844 161.410156 C 98.941406 161.089844 98.09375 160.894531 98.261719 160.308594 C 99.921875 160.882812 101.988281 164.519531 101.085938 161.578125 C 109.914062 163.242188 111.167969 166.941406 116.808594 168.078125 C 116.257812 167.769531 115.761719 167.433594 116.292969 166.714844 C 116.964844 170.070312 121.390625 169.328125 123.183594 171.503906 C 124.859375 169.703125 120.003906 170.375 121.675781 168.570312 C 134.003906 177.132812 151.308594 184.5625 162.199219 189.035156 Z M 146.152344 185.769531 C 152.414062 191.242188 162.6875 194.859375 170.4375 198.371094 C 163.074219 194.003906 155.429688 188.917969 146.152344 185.769531 Z M 132.847656 253.117188 C 134.695312 255.257812 136.710938 259.4375 141.144531 258.535156 C 139.75 256.460938 135.304688 253.488281 132.847656 253.117188 Z M 166.835938 178.707031 C 166.132812 181.839844 167.230469 179.589844 169.496094 181.59375 C 170.253906 180.011719 168.378906 179.421875 166.835938 178.707031 Z M 161.503906 178.003906 C 162.109375 177.273438 161.914062 178.433594 162.230469 178.894531 C 163.484375 178.28125 165.007812 179.972656 166.203125 180.117188 C 165.601562 179.699219 166.128906 178.847656 165.894531 178.289062 C 163.96875 177.722656 163.976562 176.417969 161.878906 175.917969 C 161.949219 177.359375 160.980469 177.277344 161.503906 178.003906 Z M 136.4375 196.070312 C 137.023438 196.246094 137.734375 196.75 138.058594 196.234375 C 133.546875 191.339844 129.355469 189.136719 120.777344 185.652344 C 116.71875 188.785156 109.148438 180.507812 103.789062 181.964844 C 112.214844 184.578125 118.203125 187.886719 124.050781 192.199219 C 116.519531 188.402344 110.042969 186.582031 104.566406 184.003906 C 109.167969 189.992188 120.578125 192.308594 129.53125 196.351562 C 138.054688 200.199219 146.121094 205.476562 153.558594 208.269531 C 147.882812 204.234375 140.929688 199.347656 136.4375 196.070312 Z M 120.964844 239.316406 C 121.710938 238.445312 124.054688 240.179688 124.257812 240.796875 C 123.988281 237.132812 116.839844 236.082031 114.023438 233.382812 C 113.988281 235.988281 119.589844 236.464844 118.660156 239.410156 C 116.691406 237.535156 112.585938 234.515625 110.25 236.757812 C 115.101562 239.21875 119.746094 243.773438 123.152344 241.992188 C 125.429688 245.707031 127.644531 245.820312 132.179688 248.304688 C 132.472656 247.714844 133.074219 247.925781 133.28125 247.109375 C 130.046875 242.105469 125.210938 242.914062 120.964844 239.316406 Z M 102.125 241.007812 C 106.996094 243.417969 110.367188 245.019531 113.503906 248.375 C 110.691406 248 109.078125 244.398438 107.179688 246.101562 C 113.625 250.1875 119.496094 254.605469 127.445312 256.328125 C 121.949219 252.484375 117.429688 250.582031 113.875 246.285156 C 115.78125 247.476562 119.027344 248.0625 121.820312 248.726562 C 115.078125 243.136719 104.386719 238.195312 96.761719 234.085938 C 96.457031 235.628906 97.71875 236.574219 97.84375 237.957031 C 92.480469 232.953125 86.433594 228.023438 78.425781 225.847656 C 85.773438 231.925781 89.351562 234.738281 100.453125 239.691406 C 100.121094 242.539062 105.492188 244.875 106.664062 244.738281 C 103.816406 243.222656 102.867188 242.726562 102.125 241.007812 Z M 155.816406 174.320312 C 156.921875 175.515625 159.4375 175.65625 160.566406 177.582031 C 161.570312 174.894531 157.804688 174.351562 155.816406 174.320312 Z M 162.511719 174.507812 C 160.949219 174.160156 158.730469 172.089844 157.597656 172.863281 C 159.28125 173.890625 160.871094 176.492188 162.511719 174.507812 Z M 159.660156 167.023438 C 162.277344 167.1875 161.882812 168.464844 163.46875 169.859375 C 164.152344 168.496094 160.980469 165.105469 159.660156 167.023438 Z M 131.023438 204.355469 C 129.605469 203.457031 132.355469 202.398438 134.167969 202.382812 C 133.535156 204.472656 141.511719 205.609375 137.34375 206.628906 C 141.128906 207.851562 142.601562 209.984375 144.867188 210.011719 C 144.105469 207.960938 140.425781 207.023438 139.8125 204.917969 C 140.40625 205.125 140.988281 205.277344 141.167969 204.402344 C 133.859375 199.390625 122.359375 193.933594 112.230469 190.835938 C 113.417969 194.84375 118.730469 195.296875 122.253906 198.722656 C 119.742188 197.585938 117.136719 196.199219 115.25 196.703125 C 120.417969 201.601562 124.699219 202.007812 131.023438 204.355469 Z M 156.109375 164.867188 C 156.519531 164.921875 157.039062 165.265625 157.257812 164.816406 C 153.535156 163.355469 148.460938 158.75 144.824219 159.796875 C 146.53125 160.222656 147.914062 161.386719 146.074219 162.046875 C 149.714844 162.144531 153.171875 166.574219 157.097656 166.4375 C 156.644531 165.957031 156.253906 165.453125 156.109375 164.867188 Z M 126.019531 151.347656 C 128.109375 152.792969 131.632812 153.625 133.753906 154.257812 C 131.8125 152.511719 128.558594 150.375 126.019531 151.347656 Z M 121.480469 147.613281 C 122.632812 147.988281 124.703125 151.175781 125.242188 149.300781 C 124.40625 148.804688 122.667969 146.695312 121.480469 147.613281 Z M 84.648438 225.824219 C 84.890625 227.773438 87.734375 229.289062 88.667969 228.191406 C 87.675781 227.273438 86.429688 226.445312 84.648438 225.824219 Z M 84.648438 225.824219 " fill-opacity="1" fill-rule="evenodd"/></g></g></g><g clip-path="url(#a88ee911fa)"><g clip-path="url(#32a3fb5ebc)"><g clip-path="url(#a29bab814b)"><path fill="#8fe3d9" d="M 83.027344 242.011719 C 84.1875 242.648438 78.25 241.746094 79.6875 239.382812 C 80.542969 240.359375 82.386719 240.953125 83.027344 242.011719 Z M 83.027344 242.011719 " fill-opacity="1" fill-rule="evenodd"/></g></g></g><g clip-path="url(#ad238f414c)"><g clip-path="url(#80af61cdf6)"><g clip-path="url(#8351be9fd3)"><path fill="#8fe3d9" d="M 73.363281 237.109375 C 74.375 234.304688 75.960938 238.398438 79.214844 239.171875 C 74.148438 240.800781 69.578125 234.78125 64.382812 231.945312 C 58.894531 228.949219 52.863281 227.023438 50.132812 222.160156 C 55.820312 226.984375 66.496094 232.226562 73.363281 237.109375 Z M 73.363281 237.109375 " fill-opacity="1" fill-rule="evenodd"/></g></g></g><g clip-path="url(#aad63458ee)"><g clip-path="url(#af35b6dd90)"><g clip-path="url(#6753260175)"><path fill="#8fe3d9" d="M 65.226562 230.070312 C 65.109375 230.875 61.550781 226.636719 59.957031 225.445312 C 62.066406 225.308594 63.84375 228.636719 65.226562 230.070312 Z M 65.226562 230.070312 " fill-opacity="1" fill-rule="evenodd"/></g></g></g><g fill="#232323" fill-opacity="1"><g transform="translate(93.098504, 169.637773)"><g><path d="M 24.65625 -37.109375 L 25.59375 -37.109375 L 25.5 -36.171875 L 24.40625 -34.3125 L 24 -34.78125 L 23.53125 -34.78125 Z M 7.421875 -36.640625 L 8.34375 -36.640625 L 9.65625 -35.71875 L 9.6875 -36.171875 C 11.34375 -35.867188 12.519531 -35.097656 13.21875 -33.859375 C 14.289062 -33.859375 15.40625 -30.597656 16.5625 -24.078125 L 22.984375 -33.859375 L 23.484375 -34.3125 L 23.953125 -34.3125 L 23.921875 -33.859375 L 17.328125 -22.21875 L 18.25 -22.21875 C 23.125 -31.832031 26.023438 -36.640625 26.953125 -36.640625 L 28.265625 -35.71875 L 28.296875 -36.171875 C 29.628906 -36.171875 31.207031 -34.625 33.03125 -31.53125 L 32.890625 -30.125 L 32.40625 -29.671875 L 32.8125 -29.203125 L 32.640625 -27.34375 L 31.71875 -27.34375 L 32.40625 -24.546875 L 31.5 -19.4375 L 31.359375 -18.03125 L 31.796875 -17.5625 L 31.75 -17.109375 L 30.765625 -16.171875 L 31.578125 -15.25 L 30.59375 -14.3125 L 31.421875 -13.375 L 30.921875 -12.921875 L 30.453125 -12.921875 L 30.890625 -12.453125 L 29.75 0.578125 C 28.820312 0.578125 28.320312 1.039062 28.25 1.96875 C 27.3125 1.96875 26.769531 2.742188 26.625 4.296875 L 25.234375 4.296875 L 22.609375 2.4375 L 23.3125 -0.359375 L 22.625 -3.140625 L 25.78125 -23.15625 C 24.226562 -21.53125 22.53125 -18.117188 20.6875 -12.921875 C 20.519531 -11.109375 19.789062 -9.863281 18.5 -9.1875 L 18.03125 -9.1875 L 18.0625 -9.65625 L 18.578125 -10.125 L 18.640625 -10.59375 L 18.203125 -11.0625 L 19.21875 -11.984375 L 19.328125 -13.375 L 18.390625 -13.375 C 18.265625 -11.6875 17.535156 -10.445312 16.203125 -9.65625 L 15.734375 -9.65625 L 13.625 -11.984375 C 12.800781 -11.984375 12.3125 -13.378906 12.15625 -16.171875 C 10.5625 -19.398438 9.832031 -21.726562 9.96875 -23.15625 L 9.5 -23.15625 L 8.53125 -17.5625 L 8.203125 -13.84375 L 7.640625 -12.453125 L 7.875 -10.125 L 7 0.109375 C 6.382812 0.109375 6.03125 0.570312 5.9375 1.5 L 3.421875 3.828125 L 2.953125 3.828125 L -0.1875 2.4375 L 0.5 0.109375 L 0.46875 -5.015625 L 0.65625 -7.328125 L 1.15625 -7.796875 L 0.734375 -8.265625 L 0.796875 -8.734375 C 1.210938 -13.472656 2.125 -18.585938 3.53125 -24.078125 L 4 -24.078125 L 3.5625 -24.546875 L 3.609375 -25.015625 L 4.234375 -26.875 L 3.90625 -28.734375 L 3.96875 -29.203125 L 4.4375 -29.203125 L 4.34375 -28.265625 L 4.8125 -28.265625 L 4.953125 -29.671875 L 4.515625 -30.125 L 6.21875 -33.390625 L 6.328125 -34.78125 L 5.796875 -34.3125 L 5.34375 -34.3125 L 4.921875 -34.78125 L 5.03125 -36.171875 L 5.5 -36.171875 L 5.9375 -35.71875 L 6.40625 -35.71875 Z M 19.078125 -15.703125 L 19.4375 -14.3125 L 19.890625 -14.3125 C 20.023438 -15.96875 21.941406 -20.15625 25.640625 -26.875 L 26.296875 -29.203125 C 23.984375 -26.316406 21.578125 -21.816406 19.078125 -15.703125 Z M 27.359375 -25.484375 L 26.875 -25.015625 L 25.828125 -13.375 L 26.296875 -13.375 L 27.640625 -23.15625 L 27.203125 -23.625 L 27.671875 -23.625 L 27.25 -24.078125 L 27.28125 -24.546875 L 27.796875 -25.015625 L 27.828125 -25.484375 Z M 24.328125 -1.28125 L 24 2.4375 L 24.46875 2.4375 L 25.15625 0.109375 L 24.796875 -1.28125 Z M 24.328125 -1.28125 "/></g></g></g><g fill="#232323" fill-opacity="1"><g transform="translate(126.262244, 169.637773)"><g><path d="M 22.5 -37.625 L 22.953125 -37.625 L 22.953125 -36.703125 L 23.421875 -37.15625 L 23.890625 -37.15625 C 26.054688 -36.425781 27.140625 -35.804688 27.140625 -35.296875 L 24.828125 -32.515625 L 25.75 -32.515625 C 26.988281 -33.148438 27.609375 -33.925781 27.609375 -34.84375 L 29.015625 -34.84375 L 29.015625 -34.375 L 28.546875 -33.90625 L 29.015625 -33.4375 L 29.015625 -32.984375 C 17.992188 -21.117188 12.609375 -11.664062 12.859375 -4.625 L 11.9375 0 L 12.390625 0.46875 L 12.390625 0.9375 L 10.078125 5.125 L 6.34375 4.65625 L 6.34375 0.9375 L 4.953125 -0.90625 L 4.953125 -1.828125 L 5.421875 -7.421875 L 5.890625 -6.953125 L 6.34375 -6.953125 L 5.890625 -7.421875 L 5.890625 -7.875 L 6.34375 -8.34375 L 6.34375 -8.8125 L 5.890625 -9.28125 L 7.28125 -9.75 L 6.8125 -7.421875 L 6.8125 -5.5625 L 7.28125 -5.5625 L 7.828125 -11.171875 L 7.359375 -12.5625 L 6.890625 -12.5625 L 6.890625 -11.171875 L 6.4375 -11.171875 L 5.96875 -14.890625 L 6.4375 -15.359375 L 6.4375 -15.8125 L 0.03125 -32.15625 L 0.03125 -33.09375 L 0.953125 -33.09375 L 0.03125 -35.40625 L 0.5 -35.875 L 1.421875 -35.875 C 2.128906 -35.875 2.59375 -35.097656 2.8125 -33.546875 L 4.21875 -34.484375 L 5.609375 -34.484375 C 5.609375 -32.566406 7.28125 -28.515625 10.625 -22.328125 C 12.40625 -25.722656 13.953125 -27.738281 15.265625 -28.375 L 15.265625 -27.90625 C 12.171875 -23.96875 10.625 -21.644531 10.625 -20.9375 L 10.625 -20.46875 L 11.078125 -20.46875 L 22.03125 -35.296875 L 22.03125 -35.765625 L 16.671875 -30.234375 L 16.671875 -30.703125 Z M 16.671875 -30.234375 L 16.671875 -29.78125 L 15.734375 -28.84375 L 15.734375 -29.3125 Z M 22.953125 -30.65625 C 16.273438 -22.09375 12.9375 -17.144531 12.9375 -15.8125 L 13.875 -15.8125 C 16.550781 -20.976562 19.734375 -25.925781 23.421875 -30.65625 Z M 7.75 1.859375 L 7.75 3.71875 L 8.203125 3.71875 L 8.203125 1.859375 Z M 7.75 1.859375 "/></g></g></g><g fill="#232323" fill-opacity="1"><g transform="translate(153.3788, 169.637773)"><g/></g></g><g fill="#232323" fill-opacity="1"><g transform="translate(168.948246, 169.637773)"><g><path d="M -0.328125 -36.53125 C 3.390625 -36.53125 5.25 -35.289062 5.25 -32.8125 L 5.71875 -32.8125 L 5.71875 -34.203125 L 6.65625 -34.203125 C 7.894531 -30.578125 8.976562 -25.617188 9.90625 -19.328125 L 9.4375 -19.328125 L 9.90625 -18.859375 L 9.90625 -14.671875 L 10.84375 -14.671875 L 10.375 -14.203125 L 10.375 -11.875 L 10.84375 -11.875 C 12.0625 -14.957031 14.539062 -19.144531 18.28125 -24.4375 L 18.75 -23.96875 L 19.671875 -25.375 L 19.21875 -25.375 L 18.28125 -24.4375 L 18.28125 -24.90625 L 23.40625 -30.484375 L 24.328125 -30.484375 L 26.1875 -28.625 L 23.859375 -25.828125 L 25.265625 -25.828125 C 25.265625 -26.796875 26.191406 -27.882812 28.046875 -29.09375 L 28.046875 -27.6875 C 26.804688 -27.539062 26.1875 -27.078125 26.1875 -26.296875 L 27.125 -26.296875 C 27.125 -27.222656 27.585938 -27.6875 28.515625 -27.6875 L 28.515625 -26.296875 C 26.929688 -25.367188 24.601562 -22.578125 21.53125 -17.921875 L 11.765625 -0.25 L 10.84375 -0.25 L 10.375 -0.71875 C 9.4375 -0.71875 8.96875 -0.09375 8.96875 1.15625 L 8.046875 1.15625 C 5.878906 1.15625 4.796875 0.0664062 4.796875 -2.109375 L 5.25 -3.5 L 4.328125 -2.578125 L 4.328125 -1.171875 L 4.796875 -0.71875 L 4.796875 -0.25 L 4.328125 0.21875 L 3.390625 0.21875 L 2.921875 -2.109375 L 3.390625 -3.5 L 2.921875 -3.5 L 3.390625 -3.96875 L 3.390625 -6.765625 C 3.003906 -23.816406 1.921875 -32.34375 0.140625 -32.34375 L 0.609375 -33.75 Z M 22 -30.953125 L 22 -30.484375 L 20.140625 -28.625 L 19.671875 -28.625 C 20.398438 -29.976562 21.175781 -30.753906 22 -30.953125 Z M 18.75 -27.6875 L 18.75 -27.234375 L 14.5625 -21.640625 L 14.5625 -22.109375 C 15.269531 -23.859375 16.664062 -25.71875 18.75 -27.6875 Z M 22.46875 -24.90625 L 21.078125 -22.578125 L 21.53125 -22.578125 L 22.9375 -24.4375 L 22.9375 -24.90625 Z M 3.859375 -22.578125 L 3.859375 -20.25 L 4.328125 -20.25 L 4.328125 -22.578125 Z M 13.15625 -20.25 L 13.625 -20.25 L 13.625 -18.859375 L 13.15625 -18.390625 L 12.703125 -18.390625 L 12.703125 -18.859375 Z M 4.328125 -18.859375 L 4.328125 -13.734375 L 4.796875 -13.734375 L 4.796875 -18.859375 Z M 12.703125 -18.390625 L 12.703125 -17.921875 L 11.296875 -16.0625 L 11.296875 -16.53125 Z M 13.625 -9.078125 L 13.625 -8.625 L 15.03125 -10.015625 L 15.03125 -10.484375 Z M 11.296875 -5.359375 L 11.765625 -4.90625 L 12.234375 -4.90625 L 13.15625 -7.6875 C 12.519531 -7.539062 11.898438 -6.765625 11.296875 -5.359375 Z M 11.296875 -5.359375 "/></g></g></g><g fill="#232323" fill-opacity="1"><g transform="translate(197.432943, 169.637773)"><g><path d="M 25.75 -36.453125 L 28 -34.890625 C 27.34375 -32.140625 26.15625 -30.816406 24.4375 -30.921875 L 12.28125 -30.375 L 12.234375 -29.453125 L 14.53125 -29.28125 L 17.34375 -29.5625 L 17.78125 -29.03125 L 18.25 -29.015625 L 21.53125 -29.28125 L 22.46875 -29.203125 L 22.4375 -28.734375 L 11.625 -27.609375 L 10.78125 -21.59375 L 11.25 -21.5625 L 23.890625 -22.578125 L 24.296875 -22.078125 L 24.28125 -21.625 L 23.34375 -21.703125 L 23.34375 -21.234375 L 26.546875 -20.53125 L 26.515625 -20.0625 C 25.835938 -18.320312 21.382812 -16.914062 13.15625 -15.84375 L 8.484375 -15.6875 L 8.921875 -15.21875 L 6.671875 -9.296875 L 6.21875 -9.296875 L 6.484375 -13.484375 L 6.015625 -13.515625 L 5.125 -7.0625 C 14.40625 -8.300781 20.960938 -8.789062 24.796875 -8.53125 L 27.0625 -7.90625 L 27.03125 -6.984375 L 26.109375 -7.03125 L 26.515625 -6.546875 L 26.4375 -5.140625 C 25.539062 -3.972656 23.644531 -3.484375 20.75 -3.671875 L 20.71875 -3.203125 L 24.4375 -2.953125 L 24.359375 -2.03125 L 2.703125 1.15625 L 2.25 1.125 C 0.75 0.789062 0 0.304688 0 -0.328125 L 0 -0.40625 L 0.078125 -1.8125 L 1.375 -6.84375 L 0.9375 -7.328125 L 1.859375 -7.3125 L 1.703125 -4.984375 L 2.15625 -4.921875 C 2.34375 -6.472656 2.707031 -7.222656 3.25 -7.171875 L 2.8125 -7.6875 L 3.140625 -12.3125 L 2.21875 -12.390625 L 1.59375 -10.09375 L 2.109375 -10.53125 L 2.578125 -10.515625 L 2.375 -7.71875 L 1.921875 -7.765625 L 2 -9.140625 L 1.53125 -9.171875 L 1.484375 -8.234375 L 1.015625 -8.265625 L 1.0625 -9.1875 L 2.546875 -17.046875 L 2.078125 -17.078125 L 3.140625 -19.328125 L 2.703125 -19.8125 L 2.734375 -20.28125 L 3.75 -28.140625 L 4.1875 -27.640625 L 4.65625 -27.609375 L 4.703125 -28.546875 L 4.40625 -30.890625 L 5.140625 -35.0625 L 5.234375 -36.453125 L 5.6875 -36.390625 L 6.125 -35.90625 L 6.625 -36.34375 L 7.09375 -36.28125 L 7.53125 -35.828125 L 8.015625 -36.265625 L 9.421875 -36.15625 Z M 2.46875 -16.125 L 2.25 -12.859375 L 2.703125 -12.828125 L 2.921875 -16.0625 Z M 17.8125 -15.515625 L 18.28125 -15.515625 L 18.21875 -15.046875 L 9.796875 -14.203125 L 9.359375 -14.71875 L 9.390625 -15.15625 L 13.59375 -15.359375 L 13.578125 -14.890625 Z M 17.8125 -15.515625 "/></g></g></g><g fill="#232323" fill-opacity="1"><g transform="translate(225.561924, 169.637773)"><g><path d="M 9.875 -36.703125 L 15.46875 -36.703125 C 21.976562 -35.472656 25.234375 -32.679688 25.234375 -28.328125 L 25.234375 -25.53125 L 20.578125 -19.015625 L 21.046875 -19.015625 L 25.703125 -23.203125 L 25.703125 -22.28125 C 24.109375 -18.738281 22.09375 -16.410156 19.65625 -15.296875 L 16.859375 -14.375 L 16.859375 -12.5 C 17.535156 -12.5 20.789062 -8.46875 26.625 -0.40625 C 27.863281 0.101562 29.101562 1.34375 30.34375 3.3125 L 30.34375 3.78125 L 28.03125 1.921875 L 28.03125 2.375 C 29.570312 4.019531 30.34375 5.265625 30.34375 6.109375 L 29.890625 6.109375 L 27.5625 7.5 L 27.09375 7.5 L 26.15625 6.109375 L 25.703125 6.5625 L 25.234375 6.5625 C 19.023438 1.488281 14.679688 -3.625 12.203125 -8.78125 L 9.875 -13.4375 C 8.78125 -13.4375 8.160156 -11.578125 8.015625 -7.859375 C 8.210938 -4.753906 8.054688 -2.863281 7.546875 -2.1875 C 6.640625 -1.4375 6.488281 -0.6875 7.09375 0.0625 L 7.09375 0.984375 L 5.6875 0.984375 C 5.070312 0.984375 4.765625 0.363281 4.765625 -0.875 L 4.296875 -0.875 C 4.296875 0.363281 3.710938 0.828125 2.546875 0.515625 L 0.5 -2.21875 L 1.046875 -6.453125 L 1.046875 -8.3125 L 3.828125 -21.34375 L 4.296875 -21.34375 L 4.296875 -19.484375 L 4.765625 -19.484375 L 7.09375 -29.25 C 6.46875 -29.25 6.15625 -28.628906 6.15625 -27.390625 L 5.6875 -27.390625 L 5.6875 -28.328125 L 2.90625 -28.328125 L 2.90625 -28.796875 C 2.90625 -29.410156 3.832031 -29.875 5.6875 -30.1875 L 5.6875 -30.65625 L 4.765625 -30.65625 L 1.96875 -29.71875 L 1.5 -29.71875 C 1.5 -30.34375 2.117188 -30.65625 3.359375 -30.65625 L 3.359375 -31.109375 C 2.117188 -31.109375 1.5 -31.578125 1.5 -32.515625 Z M 10.34375 -19.953125 L 10.8125 -19.953125 C 15.675781 -22.285156 19.085938 -24.765625 21.046875 -27.390625 L 21.046875 -28.328125 C 21.046875 -29.378906 19.1875 -30.460938 15.46875 -31.578125 L 12.671875 -30.65625 Z M 19.65625 -31.578125 C 20.269531 -30.171875 20.890625 -29.394531 21.515625 -29.25 L 21.515625 -30.1875 Z M 22.4375 -28.796875 L 21.96875 -26.46875 L 22.4375 -26.46875 L 22.90625 -26.921875 L 22.90625 -28.796875 Z M 5.234375 -27.390625 L 5.6875 -27.390625 L 5.6875 -26 L 5.234375 -24.140625 L 4.765625 -24.140625 L 4.765625 -25.53125 Z M 21.046875 -25.53125 L 18.71875 -22.28125 L 19.1875 -22.28125 L 21.515625 -25.0625 L 21.515625 -25.53125 Z M 25.703125 -24.609375 L 26.625 -24.609375 L 26.15625 -23.203125 L 25.703125 -23.203125 Z M 4.296875 -23.203125 L 4.765625 -23.203125 L 4.765625 -21.34375 L 4.296875 -21.34375 Z M 3.359375 -17.15625 L 3.359375 -15.296875 L 3.828125 -15.296875 L 3.828125 -17.15625 Z M 17.328125 -3.203125 L 17.328125 -2.734375 L 19.1875 -0.875 C 18.582031 -2.28125 17.960938 -3.054688 17.328125 -3.203125 Z M 19.65625 0.0625 L 19.65625 0.515625 L 21.515625 1.921875 L 21.515625 1.453125 Z M 19.65625 0.0625 "/></g></g></g><g fill="#232323" fill-opacity="1"><g transform="translate(253.362551, 169.637773)"><g><path d="M 22.5 -37.625 L 22.953125 -37.625 L 22.953125 -36.703125 L 23.421875 -37.15625 L 23.890625 -37.15625 C 26.054688 -36.425781 27.140625 -35.804688 27.140625 -35.296875 L 24.828125 -32.515625 L 25.75 -32.515625 C 26.988281 -33.148438 27.609375 -33.925781 27.609375 -34.84375 L 29.015625 -34.84375 L 29.015625 -34.375 L 28.546875 -33.90625 L 29.015625 -33.4375 L 29.015625 -32.984375 C 17.992188 -21.117188 12.609375 -11.664062 12.859375 -4.625 L 11.9375 0 L 12.390625 0.46875 L 12.390625 0.9375 L 10.078125 5.125 L 6.34375 4.65625 L 6.34375 0.9375 L 4.953125 -0.90625 L 4.953125 -1.828125 L 5.421875 -7.421875 L 5.890625 -6.953125 L 6.34375 -6.953125 L 5.890625 -7.421875 L 5.890625 -7.875 L 6.34375 -8.34375 L 6.34375 -8.8125 L 5.890625 -9.28125 L 7.28125 -9.75 L 6.8125 -7.421875 L 6.8125 -5.5625 L 7.28125 -5.5625 L 7.828125 -11.171875 L 7.359375 -12.5625 L 6.890625 -12.5625 L 6.890625 -11.171875 L 6.4375 -11.171875 L 5.96875 -14.890625 L 6.4375 -15.359375 L 6.4375 -15.8125 L 0.03125 -32.15625 L 0.03125 -33.09375 L 0.953125 -33.09375 L 0.03125 -35.40625 L 0.5 -35.875 L 1.421875 -35.875 C 2.128906 -35.875 2.59375 -35.097656 2.8125 -33.546875 L 4.21875 -34.484375 L 5.609375 -34.484375 C 5.609375 -32.566406 7.28125 -28.515625 10.625 -22.328125 C 12.40625 -25.722656 13.953125 -27.738281 15.265625 -28.375 L 15.265625 -27.90625 C 12.171875 -23.96875 10.625 -21.644531 10.625 -20.9375 L 10.625 -20.46875 L 11.078125 -20.46875 L 22.03125 -35.296875 L 22.03125 -35.765625 L 16.671875 -30.234375 L 16.671875 -30.703125 Z M 16.671875 -30.234375 L 16.671875 -29.78125 L 15.734375 -28.84375 L 15.734375 -29.3125 Z M 22.953125 -30.65625 C 16.273438 -22.09375 12.9375 -17.144531 12.9375 -15.8125 L 13.875 -15.8125 C 16.550781 -20.976562 19.734375 -25.925781 23.421875 -30.65625 Z M 7.75 1.859375 L 7.75 3.71875 L 8.203125 3.71875 L 8.203125 1.859375 Z M 7.75 1.859375 "/></g></g></g><g fill="#232323" fill-opacity="1"><g transform="translate(40.539913, 219.88777)"><g><path d="M 16.71875 -35.828125 L 17.1875 -35.828125 C 21.695312 -35.828125 25.109375 -33.960938 27.421875 -30.234375 L 27.421875 -29.78125 L 26.484375 -29.78125 L 26.953125 -29.3125 L 26.953125 -28.84375 C 25.097656 -29.0625 24.171875 -29.375 24.171875 -29.78125 C 16.921875 -29.78125 11.488281 -26.054688 7.875 -18.609375 L 6.953125 -15.359375 L 8.34375 -6.515625 L 9.75 -6.515625 C 13.613281 -6.515625 17.953125 -9.304688 22.765625 -14.890625 L 23.234375 -14.890625 L 23.234375 -14.421875 C 19.929688 -9.660156 16.207031 -6.867188 12.0625 -6.046875 L 12.0625 -5.578125 L 12.53125 -5.578125 C 15.78125 -5.578125 19.8125 -8.367188 24.625 -13.953125 L 26.03125 -12.09375 L 26.03125 -10.703125 C 26.03125 -9.691406 23.703125 -7.363281 19.046875 -3.71875 L 18.578125 -3.25 L 18.109375 -3.25 L 18.109375 -2.328125 C 23.390625 -4.898438 26.03125 -6.757812 26.03125 -7.90625 L 26.953125 -7.90625 L 26.953125 -7.4375 C 23.046875 -2.789062 18.550781 -0.46875 13.46875 -0.46875 L 13.46875 0 L 15.796875 0 L 17.65625 -0.46875 L 18.109375 -0.46875 L 18.109375 0 L 12.53125 0.90625 C 10.175781 0.90625 7.695312 -0.789062 5.09375 -4.1875 L 5.09375 -3.71875 L 7.421875 0 L 7.421875 0.4375 L 6.015625 0.4375 C 3.140625 -1.53125 1.4375 -4.003906 0.90625 -6.984375 L 0.4375 -13.03125 C 0.4375 -20.800781 1.988281 -25.757812 5.09375 -27.90625 L 5.09375 -27.453125 L 2.296875 -22.796875 L 2.296875 -22.328125 L 2.765625 -22.328125 C 2.765625 -25.285156 6.640625 -29.472656 14.390625 -34.890625 L 13 -34.421875 L 12.53125 -34.421875 L 12.53125 -34.890625 Z M 11.609375 -33.96875 L 12.0625 -33.96875 L 12.0625 -33.5 L 8.8125 -32.09375 C 8.8125 -32.71875 9.742188 -33.34375 11.609375 -33.96875 Z M 7.421875 -30.703125 L 7.421875 -30.234375 L 5.09375 -27.90625 L 5.09375 -28.375 Z M 1.828125 -8.375 L 1.828125 -6.984375 L 2.296875 -5.125 L 2.765625 -5.125 L 2.765625 -5.578125 L 2.296875 -8.375 Z M 1.828125 -8.375 "/></g></g></g><g fill="#232323" fill-opacity="1"><g transform="translate(68.559443, 219.88777)"><g><path d="M 6.125 -36.71875 L 6.59375 -36.71875 L 6.59375 -35.328125 L 7.0625 -35.328125 L 7.0625 -36.265625 L 8.921875 -36.265625 C 9.546875 -36.265625 9.859375 -35.332031 9.859375 -33.46875 L 11.25 -33 C 11.25 -33.9375 11.554688 -34.40625 12.171875 -34.40625 L 12.640625 -33.9375 L 12.640625 -33.46875 L 10.3125 -20.90625 L 17.296875 -21.375 L 21.953125 -21.375 L 22.40625 -23.703125 L 21.953125 -24.171875 L 22.875 -24.171875 L 22.40625 -27.421875 L 22.40625 -27.890625 L 23.34375 -27.890625 L 22.875 -28.359375 L 22.875 -29.28125 L 23.8125 -29.28125 L 23.8125 -30.21875 L 22.875 -30.21875 L 22.875 -30.671875 L 23.8125 -30.671875 L 23.34375 -31.140625 L 23.34375 -34.40625 L 23.8125 -33.9375 L 24.28125 -33.9375 L 24.28125 -35.796875 L 23.8125 -36.265625 L 23.8125 -36.71875 L 25.203125 -36.71875 L 22.875 -20.90625 C 23.5 -20.90625 24.429688 -26.023438 25.671875 -36.265625 L 27.53125 -36.71875 C 27.84375 -34.238281 28.304688 -33 28.921875 -33 L 29.390625 -33 C 29.390625 -33.9375 29.703125 -34.40625 30.328125 -34.40625 L 30.78125 -34.40625 C 29.238281 -23.675781 26.914062 -11.113281 23.8125 3.28125 L 23.34375 3.28125 L 22.875 2.8125 L 23.34375 2.359375 L 23.34375 -1.375 L 22.875 -1.375 L 21.484375 3.28125 L 20.09375 3.28125 C 19.46875 3.28125 19.15625 2.351562 19.15625 0.5 L 18.6875 0.5 L 18.6875 2.359375 L 18.21875 2.359375 C 17.601562 2.359375 17.296875 1.890625 17.296875 0.953125 C 17.296875 -1.285156 18.226562 -6.554688 20.09375 -14.859375 L 19.625 -14.859375 L 13.578125 -14.390625 L 9.390625 -14.859375 C 8.453125 -7.410156 7.519531 -2.445312 6.59375 0.03125 L 5.203125 0.03125 C 4.578125 0.03125 4.265625 -1.207031 4.265625 -3.6875 L 3.796875 -3.6875 L 3.34375 -0.4375 L 2.40625 -1.375 L 2.40625 -2.765625 L 2.875 -3.234375 L 2.875 -3.6875 L 2.40625 -4.15625 L 1.9375 -4.15625 L 1.484375 -3.6875 L 1.015625 -3.6875 L 0.546875 -5.5625 C 1.785156 -16.03125 3.179688 -23.628906 4.734375 -28.359375 L 5.203125 -28.359375 L 4.734375 -28.8125 L 4.734375 -30.21875 L 6.125 -35.328125 L 5.671875 -35.328125 Z M 6.59375 -34.859375 L 6.59375 -31.609375 L 7.0625 -31.609375 L 7.0625 -34.859375 Z M 6.125 -31.140625 L 5.671875 -27.421875 L 5.671875 -26.484375 L 6.125 -26.484375 L 6.59375 -30.21875 L 6.59375 -31.140625 Z M 5.203125 -26.03125 L 5.203125 -24.171875 L 5.671875 -24.171875 L 5.671875 -26.03125 Z M 4.734375 -23.703125 L 4.265625 -21.375 L 4.265625 -20.90625 L 4.734375 -20.90625 L 5.203125 -22.765625 L 5.203125 -23.703125 Z M 3.796875 -19.046875 L 3.796875 -17.1875 L 4.265625 -17.1875 L 4.265625 -19.046875 Z M 21.484375 -14.390625 L 21.015625 -11.609375 L 21.015625 -11.140625 L 21.484375 -11.140625 L 21.953125 -13.46875 L 21.953125 -14.390625 Z M 20.546875 -10.671875 L 20.546875 -8.8125 L 21.015625 -8.8125 L 21.015625 -10.671875 Z M 23.8125 -5.5625 L 23.34375 -3.234375 L 23.34375 -1.828125 L 23.8125 -1.828125 L 24.28125 -5.09375 L 24.28125 -5.5625 Z M 1.015625 -3.234375 L 1.484375 -3.234375 L 1.484375 -0.90625 L 1.015625 -0.90625 Z M 1.015625 -3.234375 "/></g></g></g><g fill="#232323" fill-opacity="1"><g transform="translate(99.315254, 219.88777)"><g><path d="M 25.75 -36.453125 L 28 -34.890625 C 27.34375 -32.140625 26.15625 -30.816406 24.4375 -30.921875 L 12.28125 -30.375 L 12.234375 -29.453125 L 14.53125 -29.28125 L 17.34375 -29.5625 L 17.78125 -29.03125 L 18.25 -29.015625 L 21.53125 -29.28125 L 22.46875 -29.203125 L 22.4375 -28.734375 L 11.625 -27.609375 L 10.78125 -21.59375 L 11.25 -21.5625 L 23.890625 -22.578125 L 24.296875 -22.078125 L 24.28125 -21.625 L 23.34375 -21.703125 L 23.34375 -21.234375 L 26.546875 -20.53125 L 26.515625 -20.0625 C 25.835938 -18.320312 21.382812 -16.914062 13.15625 -15.84375 L 8.484375 -15.6875 L 8.921875 -15.21875 L 6.671875 -9.296875 L 6.21875 -9.296875 L 6.484375 -13.484375 L 6.015625 -13.515625 L 5.125 -7.0625 C 14.40625 -8.300781 20.960938 -8.789062 24.796875 -8.53125 L 27.0625 -7.90625 L 27.03125 -6.984375 L 26.109375 -7.03125 L 26.515625 -6.546875 L 26.4375 -5.140625 C 25.539062 -3.972656 23.644531 -3.484375 20.75 -3.671875 L 20.71875 -3.203125 L 24.4375 -2.953125 L 24.359375 -2.03125 L 2.703125 1.15625 L 2.25 1.125 C 0.75 0.789062 0 0.304688 0 -0.328125 L 0 -0.40625 L 0.078125 -1.8125 L 1.375 -6.84375 L 0.9375 -7.328125 L 1.859375 -7.3125 L 1.703125 -4.984375 L 2.15625 -4.921875 C 2.34375 -6.472656 2.707031 -7.222656 3.25 -7.171875 L 2.8125 -7.6875 L 3.140625 -12.3125 L 2.21875 -12.390625 L 1.59375 -10.09375 L 2.109375 -10.53125 L 2.578125 -10.515625 L 2.375 -7.71875 L 1.921875 -7.765625 L 2 -9.140625 L 1.53125 -9.171875 L 1.484375 -8.234375 L 1.015625 -8.265625 L 1.0625 -9.1875 L 2.546875 -17.046875 L 2.078125 -17.078125 L 3.140625 -19.328125 L 2.703125 -19.8125 L 2.734375 -20.28125 L 3.75 -28.140625 L 4.1875 -27.640625 L 4.65625 -27.609375 L 4.703125 -28.546875 L 4.40625 -30.890625 L 5.140625 -35.0625 L 5.234375 -36.453125 L 5.6875 -36.390625 L 6.125 -35.90625 L 6.625 -36.34375 L 7.09375 -36.28125 L 7.53125 -35.828125 L 8.015625 -36.265625 L 9.421875 -36.15625 Z M 2.46875 -16.125 L 2.25 -12.859375 L 2.703125 -12.828125 L 2.921875 -16.0625 Z M 17.8125 -15.515625 L 18.28125 -15.515625 L 18.21875 -15.046875 L 9.796875 -14.203125 L 9.359375 -14.71875 L 9.390625 -15.15625 L 13.59375 -15.359375 L 13.578125 -14.890625 Z M 17.8125 -15.515625 "/></g></g></g><g fill="#232323" fill-opacity="1"><g transform="translate(127.444235, 219.88777)"><g><path d="M 18.53125 -38.59375 C 18.726562 -37.65625 19.96875 -37.1875 22.25 -37.1875 L 25.96875 -20.90625 L 29.234375 -20.90625 L 29.234375 -20.4375 L 26.4375 -19.984375 L 26.4375 -19.515625 C 27.363281 -19.515625 27.828125 -19.203125 27.828125 -18.578125 L 31.546875 -18.578125 L 31.546875 -18.109375 C 31.546875 -17.421875 30 -16.800781 26.90625 -16.25 L 27.828125 -13.46875 L 27.359375 -12.0625 L 27.828125 -9.28125 L 27.359375 -8.8125 L 27.828125 -8.8125 L 27.359375 -8.34375 L 27.828125 -2.765625 L 27.828125 0.03125 L 27.359375 -0.4375 L 26.90625 -0.4375 L 28.296875 6.546875 L 27.359375 6.546875 C 27.359375 5.609375 27.050781 5.140625 26.4375 5.140625 L 26.4375 5.609375 L 26.90625 7 L 26.4375 7 L 25.96875 6.546875 L 25.5 6.546875 C 25.5 7.472656 25.191406 7.9375 24.578125 7.9375 L 22.25 0.03125 L 21.78125 0.03125 L 21.78125 1.890625 L 21.3125 1.890625 L 20.390625 -3.6875 L 21.78125 -2.765625 L 21.78125 -3.234375 C 21.53125 -6.023438 21.066406 -7.421875 20.390625 -7.421875 L 20.859375 -7.875 L 20.859375 -9.28125 L 19.921875 -9.28125 L 19.921875 -7.875 L 19.453125 -7.875 L 19.453125 -9.75 L 19.921875 -10.203125 L 19.453125 -10.203125 L 19 -9.75 L 19 -11.609375 L 19.453125 -11.609375 L 19.921875 -11.140625 L 20.390625 -11.140625 L 19.921875 -11.609375 L 19.921875 -14.390625 L 9.6875 -12.0625 L 9.6875 -11.140625 L 12.9375 -12.0625 L 14.8125 -11.609375 L 17.125 -12.0625 L 17.125 -11.140625 C 10.613281 -9.972656 7.359375 -8.421875 7.359375 -6.484375 C 6.535156 -3.078125 5.601562 -0.90625 4.5625 0.03125 L 4.5625 0.953125 L 3.171875 0.953125 L 2.703125 0.5 L 2.25 0.5 L 2.25 0.953125 L 0.84375 0.03125 L 1.78125 -2.765625 L 1.3125 -2.765625 C 0.382812 -2.765625 -0.078125 -1.523438 -0.078125 0.953125 L -1.015625 0.03125 L -0.546875 -2.765625 L -1.9375 -4.15625 L 5.96875 -23.234375 L 6.4375 -23.234375 C 6.4375 -22.304688 6.742188 -21.84375 7.359375 -21.84375 L 7.828125 -24.171875 L 7.359375 -23.703125 L 6.890625 -23.703125 L 6.890625 -25.5625 L 7.359375 -27.890625 L 7.828125 -27.421875 L 8.296875 -27.421875 L 7.828125 -27.890625 L 7.828125 -28.359375 L 8.75 -30.21875 L 9.21875 -30.21875 L 9.6875 -29.75 L 10.15625 -29.75 L 10.15625 -30.21875 C 10.15625 -30.832031 9.6875 -31.140625 8.75 -31.140625 L 11.078125 -37.65625 L 12.9375 -37.65625 L 12.484375 -37.1875 L 12.484375 -36.71875 C 14.628906 -37.96875 16.644531 -38.59375 18.53125 -38.59375 Z M 15.734375 -27.890625 L 12.015625 -18.109375 L 12.9375 -18.109375 C 16.039062 -18.109375 17.75 -19.039062 18.0625 -20.90625 L 16.203125 -27.890625 Z M 11.546875 -25.09375 L 10.625 -21.84375 L 10.15625 -22.296875 L 9.6875 -22.296875 L 10.15625 -20.4375 L 10.625 -20.4375 L 12.015625 -24.625 L 12.015625 -25.09375 Z M 6.4375 -20.90625 L 5.96875 -20.4375 L 5.96875 -19.515625 L 6.4375 -19.515625 L 6.890625 -20.90625 Z M 9.21875 -19.046875 L 8.75 -17.1875 L 9.21875 -17.1875 L 9.6875 -17.65625 L 9.6875 -19.046875 Z M 5.03125 -18.578125 L 4.5625 -16.71875 L 5.03125 -16.71875 L 5.96875 -18.578125 Z M 12.9375 -17.1875 L 12.9375 -16.71875 L 13.875 -16.71875 C 16.664062 -17.03125 18.0625 -17.492188 18.0625 -18.109375 L 17.59375 -18.109375 Z M 19.453125 -6.953125 L 20.390625 -6.953125 L 20.390625 -4.15625 L 19.921875 -4.15625 Z M 25.96875 -3.6875 L 25.96875 -2.765625 L 26.4375 -0.90625 L 26.90625 -0.90625 L 26.90625 -1.828125 L 26.4375 -3.6875 Z M 21.3125 -2.296875 L 21.3125 -1.375 L 22.71875 -1.828125 L 22.71875 -2.765625 Z M 21.3125 -2.296875 "/></g></g></g><g fill="#232323" fill-opacity="1"><g transform="translate(160.279621, 219.88777)"><g><path d="M 5.609375 -38.34375 L 6.046875 -37.875 L 6.046875 -37.40625 L 6.515625 -37.875 L 8.84375 -37.875 C 9.457031 -37.875 9.75 -37.097656 9.71875 -35.546875 L 10.1875 -35.546875 C 10.21875 -36.472656 10.546875 -36.9375 11.171875 -36.9375 C 11.785156 -36.9375 12.078125 -36.472656 12.046875 -35.546875 L 15.328125 -36.015625 L 20.3125 -35.078125 L 22.171875 -35.546875 C 24.535156 -35.546875 26.359375 -34.304688 27.640625 -31.828125 L 27.140625 -28.578125 L 27.578125 -28.109375 L 27.578125 -27.640625 L 26.578125 -24.84375 L 26.109375 -24.84375 L 26.140625 -25.78125 L 25.671875 -25.78125 C 23.265625 -19.9375 19.867188 -15.90625 15.484375 -13.6875 L 7.9375 -10.421875 L 7.6875 -2.515625 L 8.078125 -0.1875 C 7.453125 -0.1875 6.617188 1.359375 5.578125 4.453125 L 5.125 4.921875 L 4.65625 4.921875 L 0.984375 3.0625 L 1.59375 -0.65625 L 0.25 -2.515625 L 1.390625 -9.03125 L 0.9375 -9.5 L 2.625 -18.328125 L 2.15625 -18.796875 L 2.65625 -19.265625 L 3.578125 -19.265625 L 3.53125 -17.40625 L 4 -17.40625 L 4.078125 -19.734375 L 3.671875 -21.125 L 4.59375 -21.125 L 4.65625 -23.453125 L 3.75 -24.390625 L 3.6875 -22.515625 L 3.234375 -22.515625 C 3.304688 -24.492188 2.429688 -26.046875 0.609375 -27.171875 L 0.21875 -29.96875 L 0.296875 -31.828125 C 4.367188 -33.484375 6.414062 -34.566406 6.4375 -35.078125 L 6.453125 -35.546875 L 5.5625 -36.484375 L 5.09375 -36.015625 L 4.65625 -37.875 L 5.140625 -38.34375 Z M 9.65625 -20.203125 L 10.59375 -20.203125 C 14.582031 -21.878906 18.082031 -24.671875 21.09375 -28.578125 L 19.703125 -28.578125 C 13.484375 -28.148438 10.351562 -27.21875 10.3125 -25.78125 Z M 21.515625 -26.703125 C 20.523438 -24.953125 16.554688 -22.316406 9.609375 -18.796875 L 9.140625 -18.328125 L 9.140625 -17.875 L 10.078125 -17.875 C 14.648438 -19.28125 18.613281 -22.222656 21.96875 -26.703125 Z M 2.59375 -16.9375 L 2.578125 -16.46875 L 3.015625 -16.015625 L 2.546875 -15.546875 L 2.484375 -14.609375 L 3.421875 -14.609375 L 3.53125 -16.9375 Z M 2.59375 -16.9375 "/></g></g></g><g fill="#232323" fill-opacity="1"><g transform="translate(188.080248, 219.88777)"><g/></g></g><g fill="#232323" fill-opacity="1"><g transform="translate(203.649693, 219.88777)"><g><path d="M 9.875 -36.703125 L 15.46875 -36.703125 C 21.976562 -35.472656 25.234375 -32.679688 25.234375 -28.328125 L 25.234375 -25.53125 L 20.578125 -19.015625 L 21.046875 -19.015625 L 25.703125 -23.203125 L 25.703125 -22.28125 C 24.109375 -18.738281 22.09375 -16.410156 19.65625 -15.296875 L 16.859375 -14.375 L 16.859375 -12.5 C 17.535156 -12.5 20.789062 -8.46875 26.625 -0.40625 C 27.863281 0.101562 29.101562 1.34375 30.34375 3.3125 L 30.34375 3.78125 L 28.03125 1.921875 L 28.03125 2.375 C 29.570312 4.019531 30.34375 5.265625 30.34375 6.109375 L 29.890625 6.109375 L 27.5625 7.5 L 27.09375 7.5 L 26.15625 6.109375 L 25.703125 6.5625 L 25.234375 6.5625 C 19.023438 1.488281 14.679688 -3.625 12.203125 -8.78125 L 9.875 -13.4375 C 8.78125 -13.4375 8.160156 -11.578125 8.015625 -7.859375 C 8.210938 -4.753906 8.054688 -2.863281 7.546875 -2.1875 C 6.640625 -1.4375 6.488281 -0.6875 7.09375 0.0625 L 7.09375 0.984375 L 5.6875 0.984375 C 5.070312 0.984375 4.765625 0.363281 4.765625 -0.875 L 4.296875 -0.875 C 4.296875 0.363281 3.710938 0.828125 2.546875 0.515625 L 0.5 -2.21875 L 1.046875 -6.453125 L 1.046875 -8.3125 L 3.828125 -21.34375 L 4.296875 -21.34375 L 4.296875 -19.484375 L 4.765625 -19.484375 L 7.09375 -29.25 C 6.46875 -29.25 6.15625 -28.628906 6.15625 -27.390625 L 5.6875 -27.390625 L 5.6875 -28.328125 L 2.90625 -28.328125 L 2.90625 -28.796875 C 2.90625 -29.410156 3.832031 -29.875 5.6875 -30.1875 L 5.6875 -30.65625 L 4.765625 -30.65625 L 1.96875 -29.71875 L 1.5 -29.71875 C 1.5 -30.34375 2.117188 -30.65625 3.359375 -30.65625 L 3.359375 -31.109375 C 2.117188 -31.109375 1.5 -31.578125 1.5 -32.515625 Z M 10.34375 -19.953125 L 10.8125 -19.953125 C 15.675781 -22.285156 19.085938 -24.765625 21.046875 -27.390625 L 21.046875 -28.328125 C 21.046875 -29.378906 19.1875 -30.460938 15.46875 -31.578125 L 12.671875 -30.65625 Z M 19.65625 -31.578125 C 20.269531 -30.171875 20.890625 -29.394531 21.515625 -29.25 L 21.515625 -30.1875 Z M 22.4375 -28.796875 L 21.96875 -26.46875 L 22.4375 -26.46875 L 22.90625 -26.921875 L 22.90625 -28.796875 Z M 5.234375 -27.390625 L 5.6875 -27.390625 L 5.6875 -26 L 5.234375 -24.140625 L 4.765625 -24.140625 L 4.765625 -25.53125 Z M 21.046875 -25.53125 L 18.71875 -22.28125 L 19.1875 -22.28125 L 21.515625 -25.0625 L 21.515625 -25.53125 Z M 25.703125 -24.609375 L 26.625 -24.609375 L 26.15625 -23.203125 L 25.703125 -23.203125 Z M 4.296875 -23.203125 L 4.765625 -23.203125 L 4.765625 -21.34375 L 4.296875 -21.34375 Z M 3.359375 -17.15625 L 3.359375 -15.296875 L 3.828125 -15.296875 L 3.828125 -17.15625 Z M 17.328125 -3.203125 L 17.328125 -2.734375 L 19.1875 -0.875 C 18.582031 -2.28125 17.960938 -3.054688 17.328125 -3.203125 Z M 19.65625 0.0625 L 19.65625 0.515625 L 21.515625 1.921875 L 21.515625 1.453125 Z M 19.65625 0.0625 "/></g></g></g><g fill="#232323" fill-opacity="1"><g transform="translate(231.45032, 219.88777)"><g><path d="M 20.859375 -36.59375 C 24.503906 -36.59375 27.914062 -35.503906 31.09375 -33.328125 L 30.625 -32.875 L 30.625 -32.40625 L 32.484375 -29.609375 L 31.546875 -29.609375 L 31.09375 -30.078125 L 30.625 -30.078125 L 32.015625 -19.84375 L 32.484375 -19.84375 C 32.484375 -21.394531 32.796875 -22.171875 33.421875 -22.171875 L 33.421875 -20.3125 C 33.421875 -18.550781 31.867188 -14.515625 28.765625 -8.203125 L 29.234375 -8.203125 C 27.035156 -5.191406 23.773438 -2.398438 19.453125 0.171875 L 17.125 0.625 L 16.671875 0.625 C 9.296875 0.625 4.640625 -2.316406 2.703125 -8.203125 L 0.84375 -11 L 1.3125 -11.46875 L 0.84375 -14.71875 L 0.84375 -15.65625 C 0.84375 -18.226562 3.328125 -22.722656 8.296875 -29.140625 L 8.296875 -28.6875 C 6.015625 -25.613281 4.148438 -22.195312 2.703125 -18.4375 L 2.703125 -17.984375 L 3.171875 -17.984375 C 4.304688 -22.523438 8.492188 -28.257812 15.734375 -35.1875 L 12.484375 -33.328125 L 12.015625 -33.328125 C 12.015625 -34.753906 14.960938 -35.84375 20.859375 -36.59375 Z M 18.53125 -28.6875 L 18.0625 -29.140625 L 18.0625 -28.6875 L 18.53125 -28.21875 L 15.265625 -25.421875 C 12.691406 -25.421875 10.210938 -21.078125 7.828125 -12.390625 C 7.828125 -9.910156 9.222656 -7.742188 12.015625 -5.890625 L 12.484375 -5.890625 C 15.867188 -5.890625 19.742188 -9.453125 24.109375 -16.578125 C 25.660156 -19.972656 26.4375 -22.457031 26.4375 -24.03125 L 26.4375 -27.75 C 26.4375 -28.601562 24.882812 -29.222656 21.78125 -29.609375 L 21.3125 -29.609375 L 20.859375 -29.140625 L 20.390625 -29.140625 L 20.390625 -29.609375 Z M 32.015625 -27.28125 L 32.953125 -27.28125 L 32.953125 -24.953125 L 32.015625 -24.953125 Z M 8.296875 -22.171875 L 6.890625 -19.375 L 7.359375 -19.375 L 8.75 -22.171875 Z M 26.4375 -19.375 L 24.578125 -14.71875 L 25.96875 -14.71875 L 27.359375 -17.984375 L 26.90625 -19.375 Z M 29.6875 -17.515625 L 29.234375 -16.125 L 29.234375 -15.1875 L 29.6875 -15.1875 L 30.15625 -17.046875 L 30.15625 -17.515625 Z M 2.25 -15.65625 L 2.25 -11.9375 L 2.703125 -11.9375 L 2.703125 -15.65625 Z M 24.109375 -14.265625 L 22.25 -11.9375 L 22.71875 -11.9375 L 24.578125 -14.265625 Z M 9.21875 -4.015625 L 9.21875 -3.5625 L 11.546875 -2.15625 L 11.546875 -2.625 Z M 9.21875 -4.015625 "/></g></g></g><g fill="#232323" fill-opacity="1"><g transform="translate(265.653836, 219.88777)"><g><path d="M 20.859375 -36.59375 C 24.503906 -36.59375 27.914062 -35.503906 31.09375 -33.328125 L 30.625 -32.875 L 30.625 -32.40625 L 32.484375 -29.609375 L 31.546875 -29.609375 L 31.09375 -30.078125 L 30.625 -30.078125 L 32.015625 -19.84375 L 32.484375 -19.84375 C 32.484375 -21.394531 32.796875 -22.171875 33.421875 -22.171875 L 33.421875 -20.3125 C 33.421875 -18.550781 31.867188 -14.515625 28.765625 -8.203125 L 29.234375 -8.203125 C 27.035156 -5.191406 23.773438 -2.398438 19.453125 0.171875 L 17.125 0.625 L 16.671875 0.625 C 9.296875 0.625 4.640625 -2.316406 2.703125 -8.203125 L 0.84375 -11 L 1.3125 -11.46875 L 0.84375 -14.71875 L 0.84375 -15.65625 C 0.84375 -18.226562 3.328125 -22.722656 8.296875 -29.140625 L 8.296875 -28.6875 C 6.015625 -25.613281 4.148438 -22.195312 2.703125 -18.4375 L 2.703125 -17.984375 L 3.171875 -17.984375 C 4.304688 -22.523438 8.492188 -28.257812 15.734375 -35.1875 L 12.484375 -33.328125 L 12.015625 -33.328125 C 12.015625 -34.753906 14.960938 -35.84375 20.859375 -36.59375 Z M 18.53125 -28.6875 L 18.0625 -29.140625 L 18.0625 -28.6875 L 18.53125 -28.21875 L 15.265625 -25.421875 C 12.691406 -25.421875 10.210938 -21.078125 7.828125 -12.390625 C 7.828125 -9.910156 9.222656 -7.742188 12.015625 -5.890625 L 12.484375 -5.890625 C 15.867188 -5.890625 19.742188 -9.453125 24.109375 -16.578125 C 25.660156 -19.972656 26.4375 -22.457031 26.4375 -24.03125 L 26.4375 -27.75 C 26.4375 -28.601562 24.882812 -29.222656 21.78125 -29.609375 L 21.3125 -29.609375 L 20.859375 -29.140625 L 20.390625 -29.140625 L 20.390625 -29.609375 Z M 32.015625 -27.28125 L 32.953125 -27.28125 L 32.953125 -24.953125 L 32.015625 -24.953125 Z M 8.296875 -22.171875 L 6.890625 -19.375 L 7.359375 -19.375 L 8.75 -22.171875 Z M 26.4375 -19.375 L 24.578125 -14.71875 L 25.96875 -14.71875 L 27.359375 -17.984375 L 26.90625 -19.375 Z M 29.6875 -17.515625 L 29.234375 -16.125 L 29.234375 -15.1875 L 29.6875 -15.1875 L 30.15625 -17.046875 L 30.15625 -17.515625 Z M 2.25 -15.65625 L 2.25 -11.9375 L 2.703125 -11.9375 L 2.703125 -15.65625 Z M 24.109375 -14.265625 L 22.25 -11.9375 L 22.71875 -11.9375 L 24.578125 -14.265625 Z M 9.21875 -4.015625 L 9.21875 -3.5625 L 11.546875 -2.15625 L 11.546875 -2.625 Z M 9.21875 -4.015625 "/></g></g></g><g fill="#232323" fill-opacity="1"><g transform="translate(299.857364, 219.88777)"><g><path d="M 24.65625 -37.109375 L 25.59375 -37.109375 L 25.5 -36.171875 L 24.40625 -34.3125 L 24 -34.78125 L 23.53125 -34.78125 Z M 7.421875 -36.640625 L 8.34375 -36.640625 L 9.65625 -35.71875 L 9.6875 -36.171875 C 11.34375 -35.867188 12.519531 -35.097656 13.21875 -33.859375 C 14.289062 -33.859375 15.40625 -30.597656 16.5625 -24.078125 L 22.984375 -33.859375 L 23.484375 -34.3125 L 23.953125 -34.3125 L 23.921875 -33.859375 L 17.328125 -22.21875 L 18.25 -22.21875 C 23.125 -31.832031 26.023438 -36.640625 26.953125 -36.640625 L 28.265625 -35.71875 L 28.296875 -36.171875 C 29.628906 -36.171875 31.207031 -34.625 33.03125 -31.53125 L 32.890625 -30.125 L 32.40625 -29.671875 L 32.8125 -29.203125 L 32.640625 -27.34375 L 31.71875 -27.34375 L 32.40625 -24.546875 L 31.5 -19.4375 L 31.359375 -18.03125 L 31.796875 -17.5625 L 31.75 -17.109375 L 30.765625 -16.171875 L 31.578125 -15.25 L 30.59375 -14.3125 L 31.421875 -13.375 L 30.921875 -12.921875 L 30.453125 -12.921875 L 30.890625 -12.453125 L 29.75 0.578125 C 28.820312 0.578125 28.320312 1.039062 28.25 1.96875 C 27.3125 1.96875 26.769531 2.742188 26.625 4.296875 L 25.234375 4.296875 L 22.609375 2.4375 L 23.3125 -0.359375 L 22.625 -3.140625 L 25.78125 -23.15625 C 24.226562 -21.53125 22.53125 -18.117188 20.6875 -12.921875 C 20.519531 -11.109375 19.789062 -9.863281 18.5 -9.1875 L 18.03125 -9.1875 L 18.0625 -9.65625 L 18.578125 -10.125 L 18.640625 -10.59375 L 18.203125 -11.0625 L 19.21875 -11.984375 L 19.328125 -13.375 L 18.390625 -13.375 C 18.265625 -11.6875 17.535156 -10.445312 16.203125 -9.65625 L 15.734375 -9.65625 L 13.625 -11.984375 C 12.800781 -11.984375 12.3125 -13.378906 12.15625 -16.171875 C 10.5625 -19.398438 9.832031 -21.726562 9.96875 -23.15625 L 9.5 -23.15625 L 8.53125 -17.5625 L 8.203125 -13.84375 L 7.640625 -12.453125 L 7.875 -10.125 L 7 0.109375 C 6.382812 0.109375 6.03125 0.570312 5.9375 1.5 L 3.421875 3.828125 L 2.953125 3.828125 L -0.1875 2.4375 L 0.5 0.109375 L 0.46875 -5.015625 L 0.65625 -7.328125 L 1.15625 -7.796875 L 0.734375 -8.265625 L 0.796875 -8.734375 C 1.210938 -13.472656 2.125 -18.585938 3.53125 -24.078125 L 4 -24.078125 L 3.5625 -24.546875 L 3.609375 -25.015625 L 4.234375 -26.875 L 3.90625 -28.734375 L 3.96875 -29.203125 L 4.4375 -29.203125 L 4.34375 -28.265625 L 4.8125 -28.265625 L 4.953125 -29.671875 L 4.515625 -30.125 L 6.21875 -33.390625 L 6.328125 -34.78125 L 5.796875 -34.3125 L 5.34375 -34.3125 L 4.921875 -34.78125 L 5.03125 -36.171875 L 5.5 -36.171875 L 5.9375 -35.71875 L 6.40625 -35.71875 Z M 19.078125 -15.703125 L 19.4375 -14.3125 L 19.890625 -14.3125 C 20.023438 -15.96875 21.941406 -20.15625 25.640625 -26.875 L 26.296875 -29.203125 C 23.984375 -26.316406 21.578125 -21.816406 19.078125 -15.703125 Z M 27.359375 -25.484375 L 26.875 -25.015625 L 25.828125 -13.375 L 26.296875 -13.375 L 27.640625 -23.15625 L 27.203125 -23.625 L 27.671875 -23.625 L 27.25 -24.078125 L 27.28125 -24.546875 L 27.796875 -25.015625 L 27.828125 -25.484375 Z M 24.328125 -1.28125 L 24 2.4375 L 24.46875 2.4375 L 25.15625 0.109375 L 24.796875 -1.28125 Z M 24.328125 -1.28125 "/></g></g></g><g fill="#232323" fill-opacity="1"><g transform="translate(117.207897, 259.078624)"><g><path d="M 5.015625 -5.3125 L 1.875 -5.3125 L 1.875 -3.5 L 4.71875 -3.5 L 4.71875 -2.5625 L 1.875 -2.5625 L 1.875 0 L 0.828125 0 L 0.828125 -6.25 L 5.015625 -6.25 Z M 5.015625 -5.3125 "/></g></g></g><g fill="#232323" fill-opacity="1"><g transform="translate(123.11106, 259.078624)"><g><path d="M 1.875 0 L 0.828125 0 L 0.828125 -6.25 L 1.875 -6.25 Z M 1.875 0 "/></g></g></g><g fill="#232323" fill-opacity="1"><g transform="translate(126.572453, 259.078624)"><g><path d="M 6.25 0 L 5.203125 0 L 1.875 -4.484375 L 1.875 0 L 0.828125 0 L 0.828125 -6.25 L 1.859375 -6.25 L 5.203125 -1.765625 L 5.203125 -6.25 L 6.25 -6.25 Z M 6.25 0 "/></g></g></g><g fill="#232323" fill-opacity="1"><g transform="translate(134.416506, 259.078624)"><g><path d="M 0.828125 -6.25 L 3.390625 -6.25 C 4.328125 -6.25 5.097656 -5.953125 5.703125 -5.359375 C 6.316406 -4.773438 6.625 -4.03125 6.625 -3.125 C 6.625 -2.21875 6.316406 -1.46875 5.703125 -0.875 C 5.085938 -0.289062 4.304688 0 3.359375 0 L 0.828125 0 Z M 1.875 -5.3125 L 1.875 -0.953125 L 3.421875 -0.953125 C 4.023438 -0.953125 4.53125 -1.15625 4.9375 -1.5625 C 5.351562 -1.96875 5.5625 -2.484375 5.5625 -3.109375 C 5.5625 -3.742188 5.347656 -4.269531 4.921875 -4.6875 C 4.503906 -5.101562 3.988281 -5.3125 3.375 -5.3125 Z M 1.875 -5.3125 "/></g></g></g><g fill="#232323" fill-opacity="1"><g transform="translate(142.108501, 259.078624)"><g/></g></g><g fill="#232323" fill-opacity="1"><g transform="translate(145.176354, 259.078624)"><g><path d="M 5.09375 -5.3125 L 3.109375 -5.3125 L 3.109375 0 L 2.0625 0 L 2.0625 -5.3125 L 0.078125 -5.3125 L 0.078125 -6.25 L 5.09375 -6.25 Z M 5.09375 -5.3125 "/></g></g></g><g fill="#232323" fill-opacity="1"><g transform="translate(151.115285, 259.078624)"><g><path d="M 6.25 0 L 5.1875 0 L 5.1875 -2.59375 L 1.875 -2.59375 L 1.875 0 L 0.828125 0 L 0.828125 -6.25 L 1.875 -6.25 L 1.875 -3.546875 L 5.1875 -3.546875 L 5.1875 -6.25 L 6.25 -6.25 Z M 6.25 0 "/></g></g></g><g fill="#232323" fill-opacity="1"><g transform="translate(158.950387, 259.078624)"><g><path d="M 5.296875 -5.3125 L 1.875 -5.3125 L 1.875 -3.625 L 4.9375 -3.625 L 4.9375 -2.671875 L 1.875 -2.671875 L 1.875 -0.953125 L 5.390625 -0.953125 L 5.390625 0 L 0.828125 0 L 0.828125 -6.25 L 5.296875 -6.25 Z M 5.296875 -5.3125 "/></g></g></g><g fill="#232323" fill-opacity="1"><g transform="translate(165.578025, 259.078624)"><g/></g></g><g fill="#232323" fill-opacity="1"><g transform="translate(168.645874, 259.078624)"><g><path d="M 3.59375 -6.28125 C 4.03125 -6.28125 4.457031 -6.195312 4.875 -6.03125 C 5.300781 -5.863281 5.664062 -5.625 5.96875 -5.3125 L 5.359375 -4.546875 C 5.128906 -4.796875 4.859375 -4.988281 4.546875 -5.125 C 4.234375 -5.269531 3.921875 -5.34375 3.609375 -5.34375 C 2.984375 -5.34375 2.453125 -5.128906 2.015625 -4.703125 C 1.585938 -4.273438 1.375 -3.753906 1.375 -3.140625 C 1.375 -2.523438 1.585938 -2.003906 2.015625 -1.578125 C 2.453125 -1.148438 2.984375 -0.9375 3.609375 -0.9375 C 4.253906 -0.9375 4.835938 -1.1875 5.359375 -1.6875 L 5.984375 -0.984375 C 5.660156 -0.671875 5.28125 -0.421875 4.84375 -0.234375 C 4.414062 -0.046875 3.988281 0.046875 3.5625 0.046875 C 2.644531 0.046875 1.867188 -0.253906 1.234375 -0.859375 C 0.609375 -1.472656 0.296875 -2.234375 0.296875 -3.140625 C 0.296875 -4.023438 0.613281 -4.769531 1.25 -5.375 C 1.882812 -5.976562 2.664062 -6.28125 3.59375 -6.28125 Z M 3.59375 -6.28125 "/></g></g></g><g fill="#232323" fill-opacity="1"><g transform="translate(175.640221, 259.078624)"><g><path d="M 6.25 0 L 5.1875 0 L 5.1875 -2.59375 L 1.875 -2.59375 L 1.875 0 L 0.828125 0 L 0.828125 -6.25 L 1.875 -6.25 L 1.875 -3.546875 L 5.1875 -3.546875 L 5.1875 -6.25 L 6.25 -6.25 Z M 6.25 0 "/></g></g></g><g fill="#232323" fill-opacity="1"><g transform="translate(183.475326, 259.078624)"><g><path d="M 5.296875 -5.3125 L 1.875 -5.3125 L 1.875 -3.625 L 4.9375 -3.625 L 4.9375 -2.671875 L 1.875 -2.671875 L 1.875 -0.953125 L 5.390625 -0.953125 L 5.390625 0 L 0.828125 0 L 0.828125 -6.25 L 5.296875 -6.25 Z M 5.296875 -5.3125 "/></g></g></g><g fill="#232323" fill-opacity="1"><g transform="translate(190.102966, 259.078624)"><g><path d="M 4.859375 -1.40625 L 1.703125 -1.40625 L 1.109375 0 L 0.015625 0 L 2.765625 -6.25 L 3.859375 -6.25 L 6.59375 0 L 5.453125 0 Z M 4.453125 -2.34375 L 3.28125 -5.125 L 2.09375 -2.34375 Z M 4.453125 -2.34375 "/></g></g></g><g fill="#232323" fill-opacity="1"><g transform="translate(197.464031, 259.078624)"><g><path d="M 0.828125 -6.25 L 3.3125 -6.25 C 4.101562 -6.25 4.710938 -6.0625 5.140625 -5.6875 C 5.578125 -5.320312 5.796875 -4.800781 5.796875 -4.125 C 5.796875 -3.414062 5.578125 -2.863281 5.140625 -2.46875 C 4.710938 -2.082031 4.101562 -1.890625 3.3125 -1.890625 L 1.875 -1.890625 L 1.875 0 L 0.828125 0 Z M 1.875 -5.3125 L 1.875 -2.828125 L 3.265625 -2.828125 C 4.273438 -2.828125 4.78125 -3.25 4.78125 -4.09375 C 4.78125 -4.90625 4.273438 -5.3125 3.265625 -5.3125 Z M 1.875 -5.3125 "/></g></g></g><g fill="#232323" fill-opacity="1"><g transform="translate(204.243718, 259.078624)"><g><path d="M 5.296875 -5.3125 L 1.875 -5.3125 L 1.875 -3.625 L 4.9375 -3.625 L 4.9375 -2.671875 L 1.875 -2.671875 L 1.875 -0.953125 L 5.390625 -0.953125 L 5.390625 0 L 0.828125 0 L 0.828125 -6.25 L 5.296875 -6.25 Z M 5.296875 -5.3125 "/></g></g></g><g fill="#232323" fill-opacity="1"><g transform="translate(210.871358, 259.078624)"><g><path d="M 2.875 -6.296875 C 3.6875 -6.296875 4.414062 -6.082031 5.0625 -5.65625 L 4.625 -4.734375 C 3.988281 -5.117188 3.378906 -5.3125 2.796875 -5.3125 C 2.484375 -5.3125 2.234375 -5.253906 2.046875 -5.140625 C 1.867188 -5.023438 1.78125 -4.863281 1.78125 -4.65625 C 1.78125 -4.445312 1.863281 -4.269531 2.03125 -4.125 C 2.195312 -3.976562 2.40625 -3.867188 2.65625 -3.796875 C 2.90625 -3.734375 3.175781 -3.648438 3.46875 -3.546875 C 3.757812 -3.441406 4.03125 -3.328125 4.28125 -3.203125 C 4.53125 -3.085938 4.734375 -2.90625 4.890625 -2.65625 C 5.054688 -2.414062 5.140625 -2.117188 5.140625 -1.765625 C 5.140625 -1.222656 4.921875 -0.785156 4.484375 -0.453125 C 4.046875 -0.128906 3.476562 0.03125 2.78125 0.03125 C 2.3125 0.03125 1.851562 -0.0546875 1.40625 -0.234375 C 0.957031 -0.410156 0.566406 -0.648438 0.234375 -0.953125 L 0.6875 -1.875 C 1 -1.582031 1.34375 -1.351562 1.71875 -1.1875 C 2.101562 -1.03125 2.46875 -0.953125 2.8125 -0.953125 C 3.175781 -0.953125 3.460938 -1.019531 3.671875 -1.15625 C 3.878906 -1.289062 3.984375 -1.476562 3.984375 -1.71875 C 3.984375 -1.925781 3.898438 -2.101562 3.734375 -2.25 C 3.566406 -2.394531 3.351562 -2.503906 3.09375 -2.578125 C 2.84375 -2.648438 2.570312 -2.734375 2.28125 -2.828125 C 1.988281 -2.921875 1.71875 -3.023438 1.46875 -3.140625 C 1.21875 -3.253906 1.007812 -3.429688 0.84375 -3.671875 C 0.675781 -3.921875 0.59375 -4.21875 0.59375 -4.5625 C 0.59375 -5.09375 0.800781 -5.515625 1.21875 -5.828125 C 1.632812 -6.140625 2.1875 -6.296875 2.875 -6.296875 Z M 2.875 -6.296875 "/></g></g></g><g fill="#232323" fill-opacity="1"><g transform="translate(217.194895, 259.078624)"><g><path d="M 5.09375 -5.3125 L 3.109375 -5.3125 L 3.109375 0 L 2.0625 0 L 2.0625 -5.3125 L 0.078125 -5.3125 L 0.078125 -6.25 L 5.09375 -6.25 Z M 5.09375 -5.3125 "/></g></g></g><g fill="#232323" fill-opacity="1"><g transform="translate(223.133829, 259.078624)"><g/></g></g><g fill="#232323" fill-opacity="1"><g transform="translate(226.201684, 259.078624)"><g><path d="M 4.796875 0 L 3.640625 -1.890625 C 3.585938 -1.890625 3.492188 -1.890625 3.359375 -1.890625 L 1.875 -1.890625 L 1.875 0 L 0.828125 0 L 0.828125 -6.25 L 3.359375 -6.25 C 4.160156 -6.25 4.78125 -6.0625 5.21875 -5.6875 C 5.65625 -5.320312 5.875 -4.800781 5.875 -4.125 C 5.875 -3.625 5.757812 -3.195312 5.53125 -2.84375 C 5.3125 -2.5 4.992188 -2.25 4.578125 -2.09375 L 5.984375 0 Z M 1.875 -2.828125 L 3.359375 -2.828125 C 4.367188 -2.828125 4.875 -3.25 4.875 -4.09375 C 4.875 -4.90625 4.367188 -5.3125 3.359375 -5.3125 L 1.875 -5.3125 Z M 1.875 -2.828125 "/></g></g></g><g fill="#232323" fill-opacity="1"><g transform="translate(233.428582, 259.078624)"><g><path d="M 1.25 -5.375 C 1.894531 -5.976562 2.679688 -6.28125 3.609375 -6.28125 C 4.546875 -6.28125 5.332031 -5.976562 5.96875 -5.375 C 6.613281 -4.769531 6.9375 -4.019531 6.9375 -3.125 C 6.9375 -2.226562 6.613281 -1.472656 5.96875 -0.859375 C 5.332031 -0.253906 4.546875 0.046875 3.609375 0.046875 C 2.679688 0.046875 1.894531 -0.253906 1.25 -0.859375 C 0.613281 -1.472656 0.296875 -2.226562 0.296875 -3.125 C 0.296875 -4.019531 0.613281 -4.769531 1.25 -5.375 Z M 3.625 -5.328125 C 3.007812 -5.328125 2.476562 -5.113281 2.03125 -4.6875 C 1.59375 -4.269531 1.375 -3.75 1.375 -3.125 C 1.375 -2.507812 1.59375 -1.984375 2.03125 -1.546875 C 2.476562 -1.117188 3.007812 -0.90625 3.625 -0.90625 C 4.238281 -0.90625 4.765625 -1.117188 5.203125 -1.546875 C 5.640625 -1.984375 5.859375 -2.507812 5.859375 -3.125 C 5.859375 -3.75 5.640625 -4.269531 5.203125 -4.6875 C 4.765625 -5.113281 4.238281 -5.328125 3.625 -5.328125 Z M 3.625 -5.328125 "/></g></g></g><g fill="#232323" fill-opacity="1"><g transform="translate(241.433622, 259.078624)"><g><path d="M 1.25 -5.375 C 1.894531 -5.976562 2.679688 -6.28125 3.609375 -6.28125 C 4.546875 -6.28125 5.332031 -5.976562 5.96875 -5.375 C 6.613281 -4.769531 6.9375 -4.019531 6.9375 -3.125 C 6.9375 -2.226562 6.613281 -1.472656 5.96875 -0.859375 C 5.332031 -0.253906 4.546875 0.046875 3.609375 0.046875 C 2.679688 0.046875 1.894531 -0.253906 1.25 -0.859375 C 0.613281 -1.472656 0.296875 -2.226562 0.296875 -3.125 C 0.296875 -4.019531 0.613281 -4.769531 1.25 -5.375 Z M 3.625 -5.328125 C 3.007812 -5.328125 2.476562 -5.113281 2.03125 -4.6875 C 1.59375 -4.269531 1.375 -3.75 1.375 -3.125 C 1.375 -2.507812 1.59375 -1.984375 2.03125 -1.546875 C 2.476562 -1.117188 3.007812 -0.90625 3.625 -0.90625 C 4.238281 -0.90625 4.765625 -1.117188 5.203125 -1.546875 C 5.640625 -1.984375 5.859375 -2.507812 5.859375 -3.125 C 5.859375 -3.75 5.640625 -4.269531 5.203125 -4.6875 C 4.765625 -5.113281 4.238281 -5.328125 3.625 -5.328125 Z M 3.625 -5.328125 "/></g></g></g><g fill="#232323" fill-opacity="1"><g transform="translate(249.438663, 259.078624)"><g><path d="M 7.4375 0 L 6.46875 0 L 6.453125 -4.671875 L 4.484375 -0.65625 L 3.796875 -0.65625 L 1.8125 -4.671875 L 1.8125 0 L 0.828125 0 L 0.828125 -6.25 L 2.078125 -6.25 L 4.140625 -2.09375 L 6.1875 -6.25 L 7.4375 -6.25 Z M 7.4375 0 "/></g></g></g><g fill="#232323" fill-opacity="1"><g transform="translate(95.429886, 268.768092)"><g><path d="M 5.015625 -5.3125 L 1.875 -5.3125 L 1.875 -3.5 L 4.71875 -3.5 L 4.71875 -2.5625 L 1.875 -2.5625 L 1.875 0 L 0.828125 0 L 0.828125 -6.25 L 5.015625 -6.25 Z M 5.015625 -5.3125 "/></g></g></g><g fill="#232323" fill-opacity="1"><g transform="translate(101.333049, 268.768092)"><g><path d="M 1.25 -5.375 C 1.894531 -5.976562 2.679688 -6.28125 3.609375 -6.28125 C 4.546875 -6.28125 5.332031 -5.976562 5.96875 -5.375 C 6.613281 -4.769531 6.9375 -4.019531 6.9375 -3.125 C 6.9375 -2.226562 6.613281 -1.472656 5.96875 -0.859375 C 5.332031 -0.253906 4.546875 0.046875 3.609375 0.046875 C 2.679688 0.046875 1.894531 -0.253906 1.25 -0.859375 C 0.613281 -1.472656 0.296875 -2.226562 0.296875 -3.125 C 0.296875 -4.019531 0.613281 -4.769531 1.25 -5.375 Z M 3.625 -5.328125 C 3.007812 -5.328125 2.476562 -5.113281 2.03125 -4.6875 C 1.59375 -4.269531 1.375 -3.75 1.375 -3.125 C 1.375 -2.507812 1.59375 -1.984375 2.03125 -1.546875 C 2.476562 -1.117188 3.007812 -0.90625 3.625 -0.90625 C 4.238281 -0.90625 4.765625 -1.117188 5.203125 -1.546875 C 5.640625 -1.984375 5.859375 -2.507812 5.859375 -3.125 C 5.859375 -3.75 5.640625 -4.269531 5.203125 -4.6875 C 4.765625 -5.113281 4.238281 -5.328125 3.625 -5.328125 Z M 3.625 -5.328125 "/></g></g></g><g fill="#232323" fill-opacity="1"><g transform="translate(109.338087, 268.768092)"><g><path d="M 4.796875 0 L 3.640625 -1.890625 C 3.585938 -1.890625 3.492188 -1.890625 3.359375 -1.890625 L 1.875 -1.890625 L 1.875 0 L 0.828125 0 L 0.828125 -6.25 L 3.359375 -6.25 C 4.160156 -6.25 4.78125 -6.0625 5.21875 -5.6875 C 5.65625 -5.320312 5.875 -4.800781 5.875 -4.125 C 5.875 -3.625 5.757812 -3.195312 5.53125 -2.84375 C 5.3125 -2.5 4.992188 -2.25 4.578125 -2.09375 L 5.984375 0 Z M 1.875 -2.828125 L 3.359375 -2.828125 C 4.367188 -2.828125 4.875 -3.25 4.875 -4.09375 C 4.875 -4.90625 4.367188 -5.3125 3.359375 -5.3125 L 1.875 -5.3125 Z M 1.875 -2.828125 "/></g></g></g><g fill="#232323" fill-opacity="1"><g transform="translate(116.564981, 268.768092)"><g/></g></g><g fill="#232323" fill-opacity="1"><g transform="translate(119.632834, 268.768092)"><g><path d="M 3.390625 -2.078125 L 3.390625 0 L 2.34375 0 L 2.34375 -2.046875 L 0.015625 -6.25 L 1.078125 -6.25 L 2.859375 -3.203125 L 4.609375 -6.25 L 5.6875 -6.25 Z M 3.390625 -2.078125 "/></g></g></g><g fill="#232323" fill-opacity="1"><g transform="translate(126.090535, 268.768092)"><g><path d="M 1.25 -5.375 C 1.894531 -5.976562 2.679688 -6.28125 3.609375 -6.28125 C 4.546875 -6.28125 5.332031 -5.976562 5.96875 -5.375 C 6.613281 -4.769531 6.9375 -4.019531 6.9375 -3.125 C 6.9375 -2.226562 6.613281 -1.472656 5.96875 -0.859375 C 5.332031 -0.253906 4.546875 0.046875 3.609375 0.046875 C 2.679688 0.046875 1.894531 -0.253906 1.25 -0.859375 C 0.613281 -1.472656 0.296875 -2.226562 0.296875 -3.125 C 0.296875 -4.019531 0.613281 -4.769531 1.25 -5.375 Z M 3.625 -5.328125 C 3.007812 -5.328125 2.476562 -5.113281 2.03125 -4.6875 C 1.59375 -4.269531 1.375 -3.75 1.375 -3.125 C 1.375 -2.507812 1.59375 -1.984375 2.03125 -1.546875 C 2.476562 -1.117188 3.007812 -0.90625 3.625 -0.90625 C 4.238281 -0.90625 4.765625 -1.117188 5.203125 -1.546875 C 5.640625 -1.984375 5.859375 -2.507812 5.859375 -3.125 C 5.859375 -3.75 5.640625 -4.269531 5.203125 -4.6875 C 4.765625 -5.113281 4.238281 -5.328125 3.625 -5.328125 Z M 3.625 -5.328125 "/></g></g></g><g fill="#232323" fill-opacity="1"><g transform="translate(134.095573, 268.768092)"><g><path d="M 6.140625 -6.25 L 6.140625 -2.59375 C 6.140625 -1.78125 5.894531 -1.132812 5.40625 -0.65625 C 4.925781 -0.1875 4.265625 0.046875 3.421875 0.046875 C 2.578125 0.046875 1.910156 -0.1875 1.421875 -0.65625 C 0.941406 -1.132812 0.703125 -1.78125 0.703125 -2.59375 L 0.703125 -6.25 L 1.75 -6.25 L 1.75 -2.59375 C 1.75 -2.070312 1.898438 -1.660156 2.203125 -1.359375 C 2.503906 -1.054688 2.914062 -0.90625 3.4375 -0.90625 C 3.945312 -0.90625 4.347656 -1.050781 4.640625 -1.34375 C 4.929688 -1.644531 5.078125 -2.0625 5.078125 -2.59375 L 5.078125 -6.25 Z M 6.140625 -6.25 "/></g></g></g><g fill="#232323" fill-opacity="1"><g transform="translate(141.68918, 268.768092)"><g><path d="M 4.796875 0 L 3.640625 -1.890625 C 3.585938 -1.890625 3.492188 -1.890625 3.359375 -1.890625 L 1.875 -1.890625 L 1.875 0 L 0.828125 0 L 0.828125 -6.25 L 3.359375 -6.25 C 4.160156 -6.25 4.78125 -6.0625 5.21875 -5.6875 C 5.65625 -5.320312 5.875 -4.800781 5.875 -4.125 C 5.875 -3.625 5.757812 -3.195312 5.53125 -2.84375 C 5.3125 -2.5 4.992188 -2.25 4.578125 -2.09375 L 5.984375 0 Z M 1.875 -2.828125 L 3.359375 -2.828125 C 4.367188 -2.828125 4.875 -3.25 4.875 -4.09375 C 4.875 -4.90625 4.367188 -5.3125 3.359375 -5.3125 L 1.875 -5.3125 Z M 1.875 -2.828125 "/></g></g></g><g fill="#232323" fill-opacity="1"><g transform="translate(148.916074, 268.768092)"><g/></g></g><g fill="#232323" fill-opacity="1"><g transform="translate(151.983924, 268.768092)"><g><path d="M 6.25 0 L 5.203125 0 L 1.875 -4.484375 L 1.875 0 L 0.828125 0 L 0.828125 -6.25 L 1.859375 -6.25 L 5.203125 -1.765625 L 5.203125 -6.25 L 6.25 -6.25 Z M 6.25 0 "/></g></g></g><g fill="#232323" fill-opacity="1"><g transform="translate(159.827973, 268.768092)"><g><path d="M 5.296875 -5.3125 L 1.875 -5.3125 L 1.875 -3.625 L 4.9375 -3.625 L 4.9375 -2.671875 L 1.875 -2.671875 L 1.875 -0.953125 L 5.390625 -0.953125 L 5.390625 0 L 0.828125 0 L 0.828125 -6.25 L 5.296875 -6.25 Z M 5.296875 -5.3125 "/></g></g></g><g fill="#232323" fill-opacity="1"><g transform="translate(166.455614, 268.768092)"><g><path d="M 3.71875 -3.25 L 6 0 L 4.734375 0 L 3.046875 -2.359375 L 1.375 0 L 0.140625 0 L 2.40625 -3.203125 L 0.296875 -6.25 L 1.515625 -6.25 L 3.046875 -4.078125 L 4.578125 -6.25 L 5.8125 -6.25 Z M 3.71875 -3.25 "/></g></g></g><g fill="#232323" fill-opacity="1"><g transform="translate(173.405248, 268.768092)"><g><path d="M 5.09375 -5.3125 L 3.109375 -5.3125 L 3.109375 0 L 2.0625 0 L 2.0625 -5.3125 L 0.078125 -5.3125 L 0.078125 -6.25 L 5.09375 -6.25 Z M 5.09375 -5.3125 "/></g></g></g><g fill="#232323" fill-opacity="1"><g transform="translate(179.344176, 268.768092)"><g/></g></g><g fill="#232323" fill-opacity="1"><g transform="translate(182.412026, 268.768092)"><g><path d="M 2.875 -6.296875 C 3.6875 -6.296875 4.414062 -6.082031 5.0625 -5.65625 L 4.625 -4.734375 C 3.988281 -5.117188 3.378906 -5.3125 2.796875 -5.3125 C 2.484375 -5.3125 2.234375 -5.253906 2.046875 -5.140625 C 1.867188 -5.023438 1.78125 -4.863281 1.78125 -4.65625 C 1.78125 -4.445312 1.863281 -4.269531 2.03125 -4.125 C 2.195312 -3.976562 2.40625 -3.867188 2.65625 -3.796875 C 2.90625 -3.734375 3.175781 -3.648438 3.46875 -3.546875 C 3.757812 -3.441406 4.03125 -3.328125 4.28125 -3.203125 C 4.53125 -3.085938 4.734375 -2.90625 4.890625 -2.65625 C 5.054688 -2.414062 5.140625 -2.117188 5.140625 -1.765625 C 5.140625 -1.222656 4.921875 -0.785156 4.484375 -0.453125 C 4.046875 -0.128906 3.476562 0.03125 2.78125 0.03125 C 2.3125 0.03125 1.851562 -0.0546875 1.40625 -0.234375 C 0.957031 -0.410156 0.566406 -0.648438 0.234375 -0.953125 L 0.6875 -1.875 C 1 -1.582031 1.34375 -1.351562 1.71875 -1.1875 C 2.101562 -1.03125 2.46875 -0.953125 2.8125 -0.953125 C 3.175781 -0.953125 3.460938 -1.019531 3.671875 -1.15625 C 3.878906 -1.289062 3.984375 -1.476562 3.984375 -1.71875 C 3.984375 -1.925781 3.898438 -2.101562 3.734375 -2.25 C 3.566406 -2.394531 3.351562 -2.503906 3.09375 -2.578125 C 2.84375 -2.648438 2.570312 -2.734375 2.28125 -2.828125 C 1.988281 -2.921875 1.71875 -3.023438 1.46875 -3.140625 C 1.21875 -3.253906 1.007812 -3.429688 0.84375 -3.671875 C 0.675781 -3.921875 0.59375 -4.21875 0.59375 -4.5625 C 0.59375 -5.09375 0.800781 -5.515625 1.21875 -5.828125 C 1.632812 -6.140625 2.1875 -6.296875 2.875 -6.296875 Z M 2.875 -6.296875 "/></g></g></g><g fill="#232323" fill-opacity="1"><g transform="translate(188.735563, 268.768092)"><g><path d="M 1.25 -5.375 C 1.894531 -5.976562 2.679688 -6.28125 3.609375 -6.28125 C 4.546875 -6.28125 5.332031 -5.976562 5.96875 -5.375 C 6.613281 -4.769531 6.9375 -4.019531 6.9375 -3.125 C 6.9375 -2.226562 6.613281 -1.472656 5.96875 -0.859375 C 5.332031 -0.253906 4.546875 0.046875 3.609375 0.046875 C 2.679688 0.046875 1.894531 -0.253906 1.25 -0.859375 C 0.613281 -1.472656 0.296875 -2.226562 0.296875 -3.125 C 0.296875 -4.019531 0.613281 -4.769531 1.25 -5.375 Z M 3.625 -5.328125 C 3.007812 -5.328125 2.476562 -5.113281 2.03125 -4.6875 C 1.59375 -4.269531 1.375 -3.75 1.375 -3.125 C 1.375 -2.507812 1.59375 -1.984375 2.03125 -1.546875 C 2.476562 -1.117188 3.007812 -0.90625 3.625 -0.90625 C 4.238281 -0.90625 4.765625 -1.117188 5.203125 -1.546875 C 5.640625 -1.984375 5.859375 -2.507812 5.859375 -3.125 C 5.859375 -3.75 5.640625 -4.269531 5.203125 -4.6875 C 4.765625 -5.113281 4.238281 -5.328125 3.625 -5.328125 Z M 3.625 -5.328125 "/></g></g></g><g fill="#232323" fill-opacity="1"><g transform="translate(196.740603, 268.768092)"><g><path d="M 1.875 -0.953125 L 4.578125 -0.953125 L 4.578125 0 L 0.828125 0 L 0.828125 -6.25 L 1.875 -6.25 Z M 1.875 -0.953125 "/></g></g></g><g fill="#232323" fill-opacity="1"><g transform="translate(202.277057, 268.768092)"><g><path d="M 1.25 -5.375 C 1.894531 -5.976562 2.679688 -6.28125 3.609375 -6.28125 C 4.546875 -6.28125 5.332031 -5.976562 5.96875 -5.375 C 6.613281 -4.769531 6.9375 -4.019531 6.9375 -3.125 C 6.9375 -2.226562 6.613281 -1.472656 5.96875 -0.859375 C 5.332031 -0.253906 4.546875 0.046875 3.609375 0.046875 C 2.679688 0.046875 1.894531 -0.253906 1.25 -0.859375 C 0.613281 -1.472656 0.296875 -2.226562 0.296875 -3.125 C 0.296875 -4.019531 0.613281 -4.769531 1.25 -5.375 Z M 3.625 -5.328125 C 3.007812 -5.328125 2.476562 -5.113281 2.03125 -4.6875 C 1.59375 -4.269531 1.375 -3.75 1.375 -3.125 C 1.375 -2.507812 1.59375 -1.984375 2.03125 -1.546875 C 2.476562 -1.117188 3.007812 -0.90625 3.625 -0.90625 C 4.238281 -0.90625 4.765625 -1.117188 5.203125 -1.546875 C 5.640625 -1.984375 5.859375 -2.507812 5.859375 -3.125 C 5.859375 -3.75 5.640625 -4.269531 5.203125 -4.6875 C 4.765625 -5.113281 4.238281 -5.328125 3.625 -5.328125 Z M 3.625 -5.328125 "/></g></g></g><g fill="#232323" fill-opacity="1"><g transform="translate(210.282098, 268.768092)"><g/></g></g><g fill="#232323" fill-opacity="1"><g transform="translate(213.349953, 268.768092)"><g><path d="M 4.859375 -1.40625 L 1.703125 -1.40625 L 1.109375 0 L 0.015625 0 L 2.765625 -6.25 L 3.859375 -6.25 L 6.59375 0 L 5.453125 0 Z M 4.453125 -2.34375 L 3.28125 -5.125 L 2.09375 -2.34375 Z M 4.453125 -2.34375 "/></g></g></g><g fill="#232323" fill-opacity="1"><g transform="translate(220.711018, 268.768092)"><g><path d="M 0.828125 -6.25 L 3.390625 -6.25 C 4.328125 -6.25 5.097656 -5.953125 5.703125 -5.359375 C 6.316406 -4.773438 6.625 -4.03125 6.625 -3.125 C 6.625 -2.21875 6.316406 -1.46875 5.703125 -0.875 C 5.085938 -0.289062 4.304688 0 3.359375 0 L 0.828125 0 Z M 1.875 -5.3125 L 1.875 -0.953125 L 3.421875 -0.953125 C 4.023438 -0.953125 4.53125 -1.15625 4.9375 -1.5625 C 5.351562 -1.96875 5.5625 -2.484375 5.5625 -3.109375 C 5.5625 -3.742188 5.347656 -4.269531 4.921875 -4.6875 C 4.503906 -5.101562 3.988281 -5.3125 3.375 -5.3125 Z M 1.875 -5.3125 "/></g></g></g><g fill="#232323" fill-opacity="1"><g transform="translate(228.403016, 268.768092)"><g><path d="M 3.609375 0 L 2.515625 0 L 0.03125 -6.25 L 1.15625 -6.25 L 3.09375 -1.171875 L 5.046875 -6.25 L 6.140625 -6.25 Z M 3.609375 0 "/></g></g></g><g fill="#232323" fill-opacity="1"><g transform="translate(235.33476, 268.768092)"><g><path d="M 5.296875 -5.3125 L 1.875 -5.3125 L 1.875 -3.625 L 4.9375 -3.625 L 4.9375 -2.671875 L 1.875 -2.671875 L 1.875 -0.953125 L 5.390625 -0.953125 L 5.390625 0 L 0.828125 0 L 0.828125 -6.25 L 5.296875 -6.25 Z M 5.296875 -5.3125 "/></g></g></g><g fill="#232323" fill-opacity="1"><g transform="translate(241.9624, 268.768092)"><g><path d="M 6.25 0 L 5.203125 0 L 1.875 -4.484375 L 1.875 0 L 0.828125 0 L 0.828125 -6.25 L 1.859375 -6.25 L 5.203125 -1.765625 L 5.203125 -6.25 L 6.25 -6.25 Z M 6.25 0 "/></g></g></g><g fill="#232323" fill-opacity="1"><g transform="translate(249.806456, 268.768092)"><g><path d="M 5.09375 -5.3125 L 3.109375 -5.3125 L 3.109375 0 L 2.0625 0 L 2.0625 -5.3125 L 0.078125 -5.3125 L 0.078125 -6.25 L 5.09375 -6.25 Z M 5.09375 -5.3125 "/></g></g></g><g fill="#232323" fill-opacity="1"><g transform="translate(255.74539, 268.768092)"><g><path d="M 6.140625 -6.25 L 6.140625 -2.59375 C 6.140625 -1.78125 5.894531 -1.132812 5.40625 -0.65625 C 4.925781 -0.1875 4.265625 0.046875 3.421875 0.046875 C 2.578125 0.046875 1.910156 -0.1875 1.421875 -0.65625 C 0.941406 -1.132812 0.703125 -1.78125 0.703125 -2.59375 L 0.703125 -6.25 L 1.75 -6.25 L 1.75 -2.59375 C 1.75 -2.070312 1.898438 -1.660156 2.203125 -1.359375 C 2.503906 -1.054688 2.914062 -0.90625 3.4375 -0.90625 C 3.945312 -0.90625 4.347656 -1.050781 4.640625 -1.34375 C 4.929688 -1.644531 5.078125 -2.0625 5.078125 -2.59375 L 5.078125 -6.25 Z M 6.140625 -6.25 "/></g></g></g><g fill="#232323" fill-opacity="1"><g transform="translate(263.339, 268.768092)"><g><path d="M 4.796875 0 L 3.640625 -1.890625 C 3.585938 -1.890625 3.492188 -1.890625 3.359375 -1.890625 L 1.875 -1.890625 L 1.875 0 L 0.828125 0 L 0.828125 -6.25 L 3.359375 -6.25 C 4.160156 -6.25 4.78125 -6.0625 5.21875 -5.6875 C 5.65625 -5.320312 5.875 -4.800781 5.875 -4.125 C 5.875 -3.625 5.757812 -3.195312 5.53125 -2.84375 C 5.3125 -2.5 4.992188 -2.25 4.578125 -2.09375 L 5.984375 0 Z M 1.875 -2.828125 L 3.359375 -2.828125 C 4.367188 -2.828125 4.875 -3.25 4.875 -4.09375 C 4.875 -4.90625 4.367188 -5.3125 3.359375 -5.3125 L 1.875 -5.3125 Z M 1.875 -2.828125 "/></g></g></g><g fill="#232323" fill-opacity="1"><g transform="translate(270.565897, 268.768092)"><g><path d="M 5.296875 -5.3125 L 1.875 -5.3125 L 1.875 -3.625 L 4.9375 -3.625 L 4.9375 -2.671875 L 1.875 -2.671875 L 1.875 -0.953125 L 5.390625 -0.953125 L 5.390625 0 L 0.828125 0 L 0.828125 -6.25 L 5.296875 -6.25 Z M 5.296875 -5.3125 "/></g></g></g><g fill="#232323" fill-opacity="1"><g transform="translate(277.188931, 268.768092)"><g/></g></g></svg>